<svg width="100" height="40" viewBox="0 0 100 40" fill="none" xmlns="http://www.w3.org/2000/svg">
<rect x="1" y="1" width="98" height="38" rx="4" fill="#29E025" stroke="#39B637" stroke-width="2"/>
<path d="M86.5 19.134C87.1667 19.5189 87.1667 20.4811 86.5 20.866L74.5 27.7942C73.8333 28.1791 73 27.698 73 26.9282V13.0718C73 12.302 73.8333 11.8209 74.5 12.2058L86.5 19.134Z" fill="#39B637"/>
<path d="M14.2528 25V13.3636H18.1847C19.0938 13.3636 19.84 13.5189 20.4233 13.8295C21.0066 14.1364 21.4384 14.5587 21.7188 15.0966C21.9991 15.6345 22.1392 16.2462 22.1392 16.9318C22.1392 17.6174 21.9991 18.2254 21.7188 18.7557C21.4384 19.286 21.0085 19.7027 20.429 20.0057C19.8494 20.3049 19.1089 20.4545 18.2074 20.4545H15.0256V19.1818H18.1619C18.7831 19.1818 19.2831 19.0909 19.6619 18.9091C20.0445 18.7273 20.321 18.4697 20.4915 18.1364C20.6657 17.7992 20.7528 17.3977 20.7528 16.9318C20.7528 16.4659 20.6657 16.0587 20.4915 15.7102C20.3172 15.3617 20.0388 15.0928 19.6562 14.9034C19.2737 14.7102 18.768 14.6136 18.1392 14.6136H15.6619V25H14.2528ZM19.7301 19.7727L22.5938 25H20.9574L18.1392 19.7727H19.7301ZM27.8707 25.1818C27.0298 25.1818 26.3045 24.9962 25.6946 24.625C25.0885 24.25 24.6207 23.7273 24.2912 23.0568C23.9654 22.3826 23.8026 21.5985 23.8026 20.7045C23.8026 19.8106 23.9654 19.0227 24.2912 18.3409C24.6207 17.6553 25.0791 17.1212 25.6662 16.7386C26.2571 16.3523 26.9465 16.1591 27.7344 16.1591C28.1889 16.1591 28.6378 16.2348 29.081 16.3864C29.5241 16.5379 29.9276 16.7841 30.2912 17.125C30.6548 17.4621 30.9446 17.9091 31.1605 18.4659C31.3764 19.0227 31.4844 19.7083 31.4844 20.5227V21.0909H24.7571V19.9318H30.1207C30.1207 19.4394 30.0223 19 29.8253 18.6136C29.6321 18.2273 29.3556 17.9223 28.9957 17.6989C28.6397 17.4754 28.2192 17.3636 27.7344 17.3636C27.2003 17.3636 26.7382 17.4962 26.348 17.7614C25.9616 18.0227 25.6643 18.3636 25.456 18.7841C25.2476 19.2045 25.1435 19.6553 25.1435 20.1364V20.9091C25.1435 21.5682 25.2571 22.1269 25.4844 22.5852C25.7154 23.0398 26.0355 23.3864 26.4446 23.625C26.8537 23.8598 27.3291 23.9773 27.8707 23.9773C28.223 23.9773 28.5412 23.928 28.8253 23.8295C29.1132 23.7273 29.3613 23.5758 29.5696 23.375C29.7779 23.1705 29.9389 22.9167 30.0526 22.6136L31.348 22.9773C31.2116 23.4167 30.9825 23.803 30.6605 24.1364C30.3385 24.4659 29.9408 24.7235 29.4673 24.9091C28.9938 25.0909 28.4616 25.1818 27.8707 25.1818ZM36.0923 25.2045C35.5393 25.2045 35.0374 25.1004 34.5866 24.892C34.1359 24.6799 33.7779 24.375 33.5128 23.9773C33.2476 23.5758 33.1151 23.0909 33.1151 22.5227C33.1151 22.0227 33.2135 21.6174 33.4105 21.3068C33.6075 20.9924 33.8707 20.7462 34.2003 20.5682C34.5298 20.3902 34.8935 20.2576 35.2912 20.1705C35.6927 20.0795 36.0961 20.0076 36.5014 19.9545C37.0317 19.8864 37.4616 19.8352 37.7912 19.8011C38.1245 19.7633 38.367 19.7008 38.5185 19.6136C38.6738 19.5265 38.7514 19.375 38.7514 19.1591V19.1136C38.7514 18.553 38.598 18.1174 38.2912 17.8068C37.9882 17.4962 37.5279 17.3409 36.9105 17.3409C36.2704 17.3409 35.7685 17.4811 35.4048 17.7614C35.0412 18.0417 34.7855 18.3409 34.6378 18.6591L33.3651 18.2045C33.5923 17.6742 33.8954 17.2614 34.2741 16.9659C34.6567 16.6667 35.0734 16.4583 35.5241 16.3409C35.9787 16.2197 36.4257 16.1591 36.8651 16.1591C37.1454 16.1591 37.4673 16.1932 37.831 16.2614C38.1984 16.3258 38.5526 16.4602 38.8935 16.6648C39.2382 16.8693 39.5241 17.178 39.7514 17.5909C39.9787 18.0038 40.0923 18.5568 40.0923 19.25V25H38.7514V23.8182H38.6832C38.5923 24.0076 38.4408 24.2102 38.2287 24.4261C38.0166 24.642 37.7344 24.8258 37.3821 24.9773C37.0298 25.1288 36.5999 25.2045 36.0923 25.2045ZM36.2969 24C36.8272 24 37.2741 23.8958 37.6378 23.6875C38.0052 23.4792 38.2817 23.2102 38.4673 22.8807C38.6567 22.5511 38.7514 22.2045 38.7514 21.8409V20.6136C38.6946 20.6818 38.5696 20.7443 38.3764 20.8011C38.187 20.8542 37.9673 20.9015 37.7173 20.9432C37.4711 20.9811 37.2306 21.0152 36.9957 21.0455C36.7647 21.072 36.5772 21.0947 36.4332 21.1136C36.0848 21.1591 35.759 21.233 35.456 21.3352C35.1567 21.4337 34.9143 21.5833 34.7287 21.7841C34.5469 21.9811 34.456 22.25 34.456 22.5909C34.456 23.0568 34.6283 23.4091 34.973 23.6477C35.3215 23.8826 35.7628 24 36.2969 24ZM45.8352 25.1818C45.108 25.1818 44.4659 24.9981 43.9091 24.6307C43.3523 24.2595 42.9167 23.7367 42.6023 23.0625C42.2879 22.3845 42.1307 21.5833 42.1307 20.6591C42.1307 19.7424 42.2879 18.947 42.6023 18.2727C42.9167 17.5985 43.3542 17.0777 43.9148 16.7102C44.4754 16.3428 45.1231 16.1591 45.858 16.1591C46.4261 16.1591 46.875 16.2538 47.2045 16.4432C47.5379 16.6288 47.7917 16.8409 47.9659 17.0795C48.1439 17.3144 48.2822 17.5076 48.3807 17.6591H48.4943V13.3636H49.8352V25H48.5398V23.6591H48.3807C48.2822 23.8182 48.142 24.0189 47.9602 24.2614C47.7784 24.5 47.5189 24.714 47.1818 24.9034C46.8447 25.089 46.3958 25.1818 45.8352 25.1818ZM46.017 23.9773C46.5549 23.9773 47.0095 23.8371 47.3807 23.5568C47.7519 23.2727 48.0341 22.8807 48.2273 22.3807C48.4205 21.8769 48.517 21.2955 48.517 20.6364C48.517 19.9848 48.4223 19.4148 48.233 18.9261C48.0436 18.4337 47.7633 18.0511 47.392 17.7784C47.0208 17.5019 46.5625 17.3636 46.017 17.3636C45.4489 17.3636 44.9754 17.5095 44.5966 17.8011C44.2216 18.089 43.9394 18.4811 43.75 18.9773C43.5644 19.4697 43.4716 20.0227 43.4716 20.6364C43.4716 21.2576 43.5663 21.822 43.7557 22.3295C43.9489 22.8333 44.233 23.2348 44.608 23.5341C44.9867 23.8295 45.4564 23.9773 46.017 23.9773ZM53.3409 28.2727C53.1136 28.2727 52.911 28.2538 52.733 28.2159C52.5549 28.1818 52.4318 28.1477 52.3636 28.1136L52.7045 26.9318C53.0303 27.0152 53.3182 27.0455 53.5682 27.0227C53.8182 27 54.0398 26.8883 54.233 26.6875C54.4299 26.4905 54.6098 26.1705 54.7727 25.7273L55.0227 25.0455L51.7955 16.2727H53.25L55.6591 23.2273H55.75L58.1591 16.2727H59.6136L55.9091 26.2727C55.7424 26.7235 55.536 27.0966 55.2898 27.392C55.0436 27.6913 54.7576 27.9129 54.4318 28.0568C54.1098 28.2008 53.7462 28.2727 53.3409 28.2727Z" fill="black"/>
</svg>
