<svg width="40" height="40" viewBox="0 0 40 40" fill="none" xmlns="http://www.w3.org/2000/svg">
<circle cx="20" cy="20" r="19" fill="#FCFF53" stroke="#EAED44" stroke-width="2"/>
<path d="M16 15.5C16 17.9853 14.8807 20 13.5 20C12.1193 20 11 17.9853 11 15.5C11 13.0147 12.1193 11 13.5 11C14.8807 11 16 13.0147 16 15.5Z" fill="black"/>
<path d="M29 15.5C29 17.9853 27.8807 20 26.5 20C25.1193 20 24 17.9853 24 15.5C24 13.0147 25.1193 11 26.5 11C27.8807 11 29 13.0147 29 15.5Z" fill="black"/>
<path d="M14 27C18 31 22 31 26 27" stroke="black"/>
<path d="M25 15.5C25 16.6046 25.6716 17.5 26.5 17.5C27.3284 17.5 28 16.6046 28 15.5C28 14.3954 27.3284 13.5 26.5 13.5C25.6716 13.5 25 14.3954 25 15.5Z" fill="white"/>
<ellipse cx="1.5" cy="2" rx="1.5" ry="2" transform="matrix(-1 0 0 1 15 13.5)" fill="white"/>
</svg>
