<svg width="40" height="40" viewBox="0 0 40 40" fill="none" xmlns="http://www.w3.org/2000/svg">
<circle cx="20" cy="20" r="20" fill="#FCFF53"/>
<path d="M16 14.5C16 16.9853 14.8807 19 13.5 19C12.1193 19 11 16.9853 11 14.5C11 12.0147 12.1193 10 13.5 10C14.8807 10 16 12.0147 16 14.5Z" fill="black"/>
<path d="M29 14.5C29 16.9853 27.8807 19 26.5 19C25.1193 19 24 16.9853 24 14.5C24 12.0147 25.1193 10 26.5 10C27.8807 10 29 12.0147 29 14.5Z" fill="black"/>
<path d="M14 26C18 30 22 30 26 26" stroke="black"/>
<path d="M25 14.5C25 15.6046 25.6716 16.5 26.5 16.5C27.3284 16.5 28 15.6046 28 14.5C28 13.3954 27.3284 12.5 26.5 12.5C25.6716 12.5 25 13.3954 25 14.5Z" fill="white"/>
<ellipse cx="1.5" cy="2" rx="1.5" ry="2" transform="matrix(-1 0 0 1 15 12.5)" fill="white"/>
</svg>
