<svg xmlns="http://www.w3.org/2000/svg" width="75" height="75" viewBox="0 0 150 150" fill="none">
<path d="M150 75C150 116.421 116.421 150 75 150C33.5786 150 0 116.421 0 75C0 33.5786 33.5786 0 75 0C116.421 0 150 33.5786 150 75Z" fill="#FCFF53"/>
<path d="M57 61C57 70.9411 52.9706 79 48 79C43.0294 79 39 70.9411 39 61C39 51.0589 43.0294 43 48 43C52.9706 43 57 51.0589 57 61Z" fill="black"/>
<path d="M110 61C110 70.9411 105.971 79 101 79C96.0294 79 92 70.9411 92 61C92 51.0589 96.0294 43 101 43C105.971 43 110 51.0589 110 61Z" fill="black"/>
<path d="M106 61C106 66.5229 103.761 71 101 71C98.2386 71 96 66.5229 96 61C96 55.4772 98.2386 51 101 51C103.761 51 106 55.4772 106 61Z" fill="white"/>
<path d="M53 61C53 66.5229 50.7614 71 48 71C45.2386 71 43 66.5229 43 61C43 55.4772 45.2386 51 48 51C50.7614 51 53 55.4772 53 61Z" fill="white"/>
<path d="M52 109C52 126.333 98 126.333 98 109" stroke="black" stroke-width="3"/>
</svg>