<svg width="25" height="25" viewBox="0 0 25 25" fill="none" xmlns="http://www.w3.org/2000/svg">
<path d="M12.4025 0.431824C12.4259 0.327869 12.5741 0.327869 12.5975 0.431824L14.2959 7.95074C14.3112 8.01811 14.3885 8.05014 14.4469 8.01326L20.9645 3.89754C21.0546 3.84063 21.1594 3.94537 21.1025 4.03548L16.9867 10.5531C16.9499 10.6115 16.9819 10.6888 17.0493 10.704L24.5682 12.4025C24.6721 12.4259 24.6721 12.5741 24.5682 12.5975L17.0493 14.2959C16.9819 14.3112 16.9499 14.3885 16.9867 14.4469L21.1025 20.9645C21.1594 21.0546 21.0546 21.1594 20.9645 21.1025L14.4469 16.9867C14.3885 16.9499 14.3112 16.9819 14.2959 17.0493L12.5975 24.5682C12.5741 24.6721 12.4259 24.6721 12.4025 24.5682L10.704 17.0493C10.6888 16.9819 10.6115 16.9499 10.5531 16.9867L4.03548 21.1025C3.94537 21.1594 3.84063 21.0546 3.89754 20.9645L8.01326 14.4469C8.05014 14.3885 8.01811 14.3112 7.95074 14.2959L0.431824 12.5975C0.327869 12.5741 0.327869 12.4259 0.431824 12.4025L7.95074 10.704C8.01811 10.6888 8.05014 10.6115 8.01326 10.5531L3.89754 4.03548C3.84063 3.94537 3.94537 3.84063 4.03548 3.89754L10.5531 8.01326C10.6115 8.05014 10.6888 8.01811 10.704 7.95074L12.4025 0.431824Z" fill="#1BC72C"/>
<circle cx="12.5" cy="12.9167" r="9.41667" fill="#4FE155" stroke="#1BC72C" stroke-width="2"/>
</svg>
