<svg width="23" height="23" viewBox="0 0 23 23" fill="none" xmlns="http://www.w3.org/2000/svg">
<path d="M20.0367 20.3944C20.0367 20.7087 20.0256 20.9587 20.0086 21.1552C19.7 20.877 19.3363 20.4966 18.8992 20.0312C18.8403 19.9685 18.7804 19.9045 18.7193 19.8394C17.8792 18.9431 16.8346 17.8286 15.6739 16.9246C14.4365 15.9611 12.931 15.1258 11.25 15.1258C9.56898 15.1258 8.06347 15.9611 6.82616 16.9246C5.66539 17.8286 4.62078 18.9431 3.78065 19.8394C3.71962 19.9045 3.65966 19.9685 3.60081 20.0312C3.16368 20.4966 2.79998 20.877 2.49137 21.1552C2.47442 20.9587 2.46326 20.7087 2.46326 20.3944C2.46326 18.9124 2.12853 17.0951 1.79214 15.2688C1.73067 14.9351 1.66915 14.601 1.6096 14.2687C1.21156 12.0473 0.881177 9.8182 1.04099 7.82125C1.1988 5.84943 1.82512 4.21101 3.25366 3.03878C4.70854 1.84493 7.15694 1 11.25 1C15.3431 1 17.7915 1.84493 19.2463 3.03878C20.6749 4.21101 21.3012 5.84943 21.459 7.82125C21.6188 9.81821 21.2884 12.0473 20.8904 14.2687C20.8309 14.601 20.7693 14.9351 20.7079 15.2688C20.3715 17.0951 20.0367 18.9124 20.0367 20.3944ZM19.899 21.7438C19.899 21.7437 19.8997 21.7423 19.9011 21.7398C19.8997 21.7426 19.899 21.7439 19.899 21.7438ZM2.60099 21.7438C2.60097 21.7439 2.60029 21.7426 2.59902 21.7399C2.60039 21.7424 2.60102 21.7437 2.60099 21.7438Z" fill="#EAEE23" stroke="#CDD021" stroke-width="2"/>
</svg>
