<svg width="23" height="23" viewBox="0 0 23 23" fill="none" xmlns="http://www.w3.org/2000/svg">
<path d="M10.8182 5.51887C10.8182 7.95132 8.68575 10.0377 5.90909 10.0377C3.13243 10.0377 1 7.95132 1 5.51887C1 3.08642 3.13243 1 5.90909 1C8.68575 1 10.8182 3.08642 10.8182 5.51887Z" fill="#E06ECE" stroke="#BB53AB" stroke-width="2"/>
<path d="M21.5 11.25C21.5 13.6825 19.3676 15.7689 16.5909 15.7689C13.8142 15.7689 11.6818 13.6825 11.6818 11.25C11.6818 8.81755 13.8142 6.73113 16.5909 6.73113C19.3676 6.73113 21.5 8.81755 21.5 11.25Z" fill="#E06ECE" stroke="#BB53AB" stroke-width="2"/>
<path d="M10.8182 16.9811C10.8182 19.4136 8.68575 21.5 5.90909 21.5C3.13243 21.5 1 19.4136 1 16.9811C1 14.5487 3.13243 12.4623 5.90909 12.4623C8.68575 12.4623 10.8182 14.5487 10.8182 16.9811Z" fill="#E06ECE" stroke="#BB53AB" stroke-width="2"/>
</svg>
