<svg width="57" height="50" viewBox="0 0 57 50" fill="none" xmlns="http://www.w3.org/2000/svg">
<path d="M20.2683 36.1573C19.3505 39.6047 14.4413 41.2762 9.30323 39.8906C4.1652 38.505 0.744038 34.587 1.66186 31.1396C2.57968 27.6921 7.48892 26.0207 12.627 27.4063C17.765 28.7919 21.1862 32.7099 20.2683 36.1573Z" fill="black"/>
<path d="M20.2683 12.8433C19.3505 9.39591 14.4413 7.72447 9.30323 9.11007C4.1652 10.4957 0.744038 14.4136 1.66186 17.8611C2.57968 21.3085 7.48892 22.9799 12.627 21.5943C17.765 20.2087 21.1862 16.2908 20.2683 12.8433Z" fill="black"/>
<path d="M52.75 25C52.75 36.4857 43.5059 45.75 32.1601 45.75C20.8143 45.75 11.5702 36.4857 11.5702 25C11.5702 13.5143 20.8143 4.25 32.1601 4.25C43.5059 4.25 52.75 13.5143 52.75 25Z" fill="#474747" stroke="#343434" stroke-width="8.5"/>
</svg>
