<svg width="81" height="54" viewBox="0 0 81 54" fill="none" xmlns="http://www.w3.org/2000/svg">
<path d="M0.932565 26.409C0.552211 26.8122 0.561576 27.4406 0.953548 27.8169L12.8643 39.2517C13.5021 39.864 14.5763 39.3812 14.563 38.4882L14.21 14.8012C14.1967 13.9082 13.1092 13.5007 12.4903 14.1568L0.932565 26.409Z" fill="black"/>
<path d="M5.28181 26.75C5.28181 39.8668 19.4126 50.5 36.8439 50.5C54.2751 50.5 68.406 39.8668 68.406 26.75C68.406 13.6332 54.2751 3 36.8439 3C19.4126 3 5.28181 13.6332 5.28181 26.75Z" fill="#FCFF53"/>
<rect width="8.83084" height="38" transform="matrix(-1 0 0 1 54.342 7.5)" fill="black"/>
<rect width="6.86843" height="41.5" transform="matrix(-1 0 0 1 52.3796 6)" fill="black"/>
<rect width="8.50377" height="32.5" transform="matrix(-1 0 0 1 58.5939 10.5)" fill="black"/>
<rect width="3.59775" height="33" transform="matrix(-1 0 0 1 18.0375 10)" fill="black"/>
<rect width="4.90602" height="33" transform="matrix(-1 0 0 1 19.3457 10)" fill="black"/>
<rect width="4.90602" height="27.5" transform="matrix(-1 0 0 1 17.3833 13)" fill="black"/>
<rect width="4.90602" height="23" transform="matrix(-1 0 0 1 14.4397 15)" fill="black"/>
<rect width="9.48498" height="42" transform="matrix(-1 0 0 1 37.3345 6)" fill="black"/>
<rect width="7.84963" height="42" transform="matrix(-1 0 0 1 38.9698 5.5)" fill="black"/>
<rect width="8.1767" height="42" transform="matrix(-1 0 0 1 34.0638 5.5)" fill="black"/>
<path fill-rule="evenodd" clip-rule="evenodd" d="M15.5372 40.4036C10.0554 36.2786 7.57128 31.2396 7.57128 26.75C7.57128 22.2604 10.0554 17.2214 15.5372 13.0964C20.8717 9.08231 28.4017 6.5 36.8439 6.5C45.2861 6.5 52.8161 9.08231 58.1505 13.0964C63.6324 17.2214 66.1165 22.2604 66.1165 26.75C66.1165 31.2396 63.6324 36.2786 58.1505 40.4036C52.8161 44.4177 45.2861 47 36.8439 47C28.4017 47 20.8717 44.4177 15.5372 40.4036ZM36.8439 50.5C19.4126 50.5 5.28181 39.8668 5.28181 26.75C5.28181 13.6332 19.4126 3 36.8439 3C54.2751 3 68.406 13.6332 68.406 26.75C68.406 39.8668 54.2751 50.5 36.8439 50.5Z" fill="#FFDB1E"/>
<path d="M75.3746 6C75.3746 8.94552 72.9868 11.3333 70.0413 11.3333C67.0958 11.3333 64.708 8.94552 64.708 6C64.708 3.05448 67.0958 0.666667 70.0413 0.666667C72.9868 0.666667 75.3746 3.05448 75.3746 6ZM66.4436 22.75C66.8552 21.8387 66.8549 21.8385 66.8546 21.8384C66.8545 21.8383 66.8542 21.8382 66.8541 21.8382C66.8538 21.838 66.8537 21.838 66.8536 21.838C66.8535 21.8379 66.8539 21.8381 66.8546 21.8384C66.8562 21.8391 66.8594 21.8405 66.8642 21.8426C66.8739 21.8469 66.8902 21.8539 66.9128 21.8634C66.958 21.8824 67.0282 21.9111 67.1209 21.9469C67.3067 22.0185 67.5817 22.1179 67.9267 22.2234C68.6195 22.4352 69.5787 22.6668 70.653 22.7532C72.8079 22.9266 75.2906 22.5143 77.1291 20.3522L78.6527 21.6478C76.2394 24.4857 72.9983 24.9484 70.4926 24.7468C69.2365 24.6457 68.1311 24.3773 67.3419 24.136C66.9458 24.0149 66.6255 23.8994 66.4011 23.8129C66.2888 23.7696 66.2003 23.7334 66.138 23.7072C66.1068 23.6941 66.0822 23.6835 66.0644 23.6757C66.0555 23.6719 66.0484 23.6687 66.0429 23.6663C66.0402 23.6651 66.0379 23.6641 66.0361 23.6632C66.0352 23.6628 66.0344 23.6625 66.0337 23.6622C66.0333 23.662 66.0329 23.6618 66.0327 23.6617C66.0323 23.6615 66.0319 23.6614 66.4436 22.75ZM77.1291 20.3522C79.0055 18.1457 79.5299 14.7881 78.4319 11.9903C77.3652 9.27249 74.7263 7 70.0413 7V5C75.4954 5 78.9073 7.72751 80.2936 11.2597C81.6485 14.7119 81.0282 18.8543 78.6527 21.6478L77.1291 20.3522Z" fill="black"/>
<path d="M77.5324 32.7886L78.3049 32.1535H78.3049L77.5324 32.7886ZM75.277 47.79C75.277 44.8445 72.8892 42.4567 69.9436 42.4567C66.9981 42.4567 64.6103 44.8445 64.6103 47.79C64.6103 50.7355 66.9981 53.1233 69.9436 53.1233C72.8892 53.1233 75.277 50.7355 75.277 47.79ZM66.4655 31.0384C66.8888 31.9444 66.8885 31.9445 66.8882 31.9447C66.8881 31.9447 66.8878 31.9448 66.8877 31.9449C66.8874 31.945 66.8872 31.9451 66.8872 31.9451C66.887 31.9452 66.8873 31.9451 66.888 31.9447C66.8894 31.9441 66.8924 31.9427 66.8969 31.9407C66.9061 31.9365 66.9217 31.9296 66.9433 31.9202C66.9865 31.9014 67.0539 31.8728 67.143 31.8373C67.3216 31.766 67.5862 31.6671 67.9182 31.5621C68.5853 31.3511 69.5079 31.1208 70.5404 31.0348C72.6066 30.8629 74.989 31.2693 76.7599 33.4236L78.3049 32.1535C75.9652 29.3074 72.8141 28.8387 70.3745 29.0417C69.1541 29.1433 68.0808 29.413 67.3151 29.6552C66.9307 29.7768 66.6197 29.8927 66.4018 29.9797C66.2927 30.0232 66.2066 30.0596 66.1459 30.086C66.1156 30.0992 66.0916 30.1099 66.0742 30.1178C66.0655 30.1217 66.0584 30.1249 66.0531 30.1273C66.0504 30.1286 66.0482 30.1296 66.0463 30.1305C66.0454 30.1309 66.0446 30.1313 66.0439 30.1316C66.0436 30.1317 66.0431 30.1319 66.043 30.132C66.0426 30.1322 66.0422 30.1324 66.4655 31.0384ZM76.7599 33.4236C78.5747 35.6313 79.0862 39.0003 78.0203 41.8097C76.9856 44.537 74.4397 46.79 69.9436 46.79V48.79C75.2497 48.79 78.5535 46.0426 79.8902 42.5192C81.1958 39.078 80.6007 34.9463 78.3049 32.1535L76.7599 33.4236Z" fill="black"/>
</svg>
