<svg width="45" height="48" viewBox="0 0 45 48" fill="none" xmlns="http://www.w3.org/2000/svg">
<path d="M39.2327 23.0231C39.2327 33.1015 31.2988 41.0831 21.7414 41.0831C12.1839 41.0831 4.25 33.1015 4.25 23.0231C4.25 12.9447 12.1839 4.96301 21.7414 4.96301C31.2988 4.96301 39.2327 12.9447 39.2327 23.0231Z" fill="#474747" stroke="#343434" stroke-width="8.5"/>
<path d="M43.3214 9.76876C44.2485 15.1639 38.5272 20.7087 30.5427 22.1534C22.5581 23.5981 15.3338 20.3957 14.4067 15.0006C13.4796 9.60542 19.2009 4.06062 27.1855 2.6159C35.17 1.17117 42.3944 4.37362 43.3214 9.76876Z" fill="#D9D9D9" fill-opacity="0.8"/>
<path d="M43.1849 38.2429C42.2219 43.6316 34.9659 46.8437 26.9782 45.4173C18.9904 43.9909 13.2956 38.4662 14.2586 33.0775C15.2215 27.6888 22.4775 24.4767 30.4653 25.9031C38.4531 27.3295 44.1478 32.8542 43.1849 38.2429Z" fill="#D9D9D9" fill-opacity="0.8"/>
<path d="M14.0064 29.7786C14.2883 28.7405 13.9414 27.5788 13.0378 26.5221C12.1362 25.4676 10.7118 24.5635 8.97024 24.0909C7.22868 23.6184 5.54244 23.6783 4.23125 24.1323C2.91716 24.5873 2.03024 25.4142 1.74835 26.4522C1.46646 27.4903 1.81336 28.652 2.71693 29.7087C3.61851 30.7632 5.04295 31.6673 6.78451 32.1399C8.52607 32.6124 10.2123 32.5525 11.5235 32.0985C12.8376 31.6435 13.7245 30.8166 14.0064 29.7786Z" fill="#AF1212" stroke="#610404"/>
<path d="M13.9458 15.6538C13.6774 14.6121 12.8034 13.7817 11.4992 13.324C10.1978 12.8674 8.51785 12.8057 6.7763 13.2783C5.03475 13.7509 3.60404 14.6567 2.69265 15.7138C1.77924 16.7732 1.41937 17.9385 1.68775 18.9802C1.95614 20.022 2.83013 20.8524 4.13438 21.31C5.43575 21.7667 7.11571 21.8283 8.85726 21.3557C10.5988 20.8831 12.0295 19.9774 12.9409 18.9203C13.8543 17.8608 14.2142 16.6956 13.9458 15.6538Z" fill="#AF1212" stroke="#610404"/>
<path d="M5.98094 15.6125C5.92332 15.3889 5.73747 15.1779 5.40222 15.0481C5.06746 14.9184 4.61802 14.8881 4.14051 15.0177C3.66301 15.1473 3.28689 15.4016 3.05832 15.6841C2.82942 15.9671 2.76946 16.2447 2.82707 16.4684C2.88469 16.692 3.07054 16.903 3.40579 17.0328C3.74055 17.1625 4.18999 17.1928 4.6675 17.0632C5.145 16.9337 5.52112 16.6793 5.74969 16.3968C5.97859 16.1139 6.03855 15.8362 5.98094 15.6125Z" fill="#AF1212" stroke="#610404"/>
<path d="M8.91819 14.621C8.86058 14.3974 8.67472 14.1864 8.33948 14.0565C8.00472 13.9269 7.55528 13.8966 7.07777 14.0261C6.60026 14.1557 6.22414 14.41 5.99558 14.6926C5.76668 14.9755 5.70672 15.2532 5.76433 15.4768C5.82194 15.7005 6.0078 15.9114 6.34305 16.0413C6.6778 16.171 7.12725 16.2013 7.60475 16.0717C8.08226 15.9421 8.45838 15.6878 8.68694 15.4052C8.91584 15.1223 8.97581 14.8446 8.91819 14.621Z" fill="#AF1212" stroke="#610404"/>
<path d="M5.00184 18.5872C4.94423 18.3636 4.75837 18.1526 4.42313 18.0227C4.08837 17.8931 3.63892 17.8628 3.16142 17.9924C2.68391 18.1219 2.30779 18.3763 2.07923 18.6588C1.85033 18.9417 1.79036 19.2194 1.84798 19.4431C1.90559 19.6667 2.09145 19.8777 2.42669 20.0075C2.76145 20.1372 3.2109 20.1675 3.6884 20.0379C4.16591 19.9083 4.54203 19.654 4.77059 19.3715C4.99949 19.0885 5.05946 18.8108 5.00184 18.5872Z" fill="#AF1212" stroke="#610404"/>
<path d="M8.91819 17.5957C8.86058 17.372 8.67472 17.161 8.33948 17.0312C8.00472 16.9015 7.55528 16.8712 7.07777 17.0008C6.60026 17.1304 6.22414 17.3847 5.99558 17.6672C5.76668 17.9502 5.70672 18.2279 5.76433 18.4515C5.82194 18.6751 6.0078 18.8861 6.34305 19.016C6.6778 19.1456 7.12725 19.1759 7.60475 19.0463C8.08226 18.9168 8.45838 18.6624 8.68694 18.3799C8.91584 18.097 8.97581 17.8193 8.91819 17.5957Z" fill="#AF1212" stroke="#610404"/>
<path d="M7.9391 19.5788C7.88148 19.3551 7.69563 19.1442 7.36038 19.0143C7.02562 18.8846 6.57618 18.8543 6.09867 18.9839C5.62117 19.1135 5.24505 19.3678 5.01648 19.6504C4.78758 19.9333 4.72762 20.211 4.78524 20.4346C4.84285 20.6582 5.0287 20.8692 5.36395 20.9991C5.69871 21.1287 6.14815 21.159 6.62566 21.0295C7.10316 20.8999 7.47928 20.6456 7.70785 20.363C7.93675 20.0801 7.99671 19.8024 7.9391 19.5788Z" fill="#AF1212" stroke="#610404"/>
<path d="M12.8345 14.621C12.7769 14.3974 12.5911 14.1864 12.2558 14.0565C11.9211 13.9269 11.4716 13.8966 10.9941 14.0261C10.5166 14.1557 10.1405 14.41 9.91193 14.6926C9.68303 14.9755 9.62307 15.2532 9.68068 15.4768C9.7383 15.7005 9.92415 15.9114 10.2594 16.0413C10.5942 16.171 11.0436 16.2013 11.5211 16.0717C11.9986 15.9421 12.3747 15.6878 12.6033 15.4052C12.8322 15.1223 12.8922 14.8446 12.8345 14.621Z" fill="#AF1212" stroke="#610404"/>
<path d="M11.8554 16.6041C11.7978 16.3805 11.612 16.1695 11.2767 16.0396C10.942 15.91 10.4925 15.8797 10.015 16.0092C9.53752 16.1388 9.1614 16.3931 8.93283 16.6757C8.70393 16.9586 8.64397 17.2363 8.70159 17.4599C8.7592 17.6836 8.94506 17.8945 9.2803 18.0244C9.61506 18.1541 10.0645 18.1844 10.542 18.0548C11.0195 17.9252 11.3956 17.6709 11.6242 17.3884C11.8531 17.1054 11.9131 16.8277 11.8554 16.6041Z" fill="#AF1212" stroke="#610404"/>
<path d="M11.8554 18.5872C11.7978 18.3636 11.612 18.1526 11.2767 18.0227C10.942 17.8931 10.4925 17.8628 10.015 17.9924C9.53752 18.1219 9.1614 18.3763 8.93283 18.6588C8.70393 18.9417 8.64397 19.2194 8.70159 19.4431C8.7592 19.6667 8.94506 19.8777 9.2803 20.0075C9.61506 20.1372 10.0645 20.1675 10.542 20.0379C11.0195 19.9083 11.3956 19.654 11.6242 19.3715C11.8531 19.0885 11.9131 18.8108 11.8554 18.5872Z" fill="#AF1212" stroke="#610404"/>
<path d="M13.9477 29.4643C13.6793 30.5061 12.8053 31.3365 11.5011 31.7941C10.1997 32.2508 8.51975 32.3124 6.77819 31.8398C5.03664 31.3673 3.60593 30.4615 2.69454 29.4044C1.78113 28.3449 1.42126 27.1797 1.68965 26.1379C1.95803 25.0962 2.83202 24.2658 4.13627 23.8081C5.43764 23.3515 7.1176 23.2898 8.85915 23.7624C10.6007 24.235 12.0314 25.1408 12.9428 26.1979C13.8562 27.2573 14.2161 28.4226 13.9477 29.4643Z" fill="#AF1212" stroke="#610404"/>
<path d="M5.98283 29.5056C5.92521 29.7293 5.73936 29.9402 5.40411 30.0701C5.06936 30.1998 4.61991 30.23 4.14241 30.1005C3.6649 29.9709 3.28878 29.7166 3.06021 29.434C2.83132 29.1511 2.77135 28.8734 2.82897 28.6498C2.88658 28.4261 3.07244 28.2152 3.40768 28.0853C3.74244 27.9557 4.19188 27.9254 4.66939 28.0549C5.1469 28.1845 5.52301 28.4388 5.75158 28.7214C5.98048 29.0043 6.04044 29.282 5.98283 29.5056Z" fill="#AF1212" stroke="#610404"/>
<path d="M8.92008 30.4972C8.86247 30.7208 8.67662 30.9318 8.34137 31.0616C8.00661 31.1913 7.55717 31.2216 7.07966 31.092C6.60216 30.9624 6.22604 30.7081 5.99747 30.4256C5.76857 30.1427 5.70861 29.865 5.76622 29.6413C5.82384 29.4177 6.00969 29.2067 6.34494 29.0769C6.6797 28.9472 7.12914 28.9169 7.60665 29.0465C8.08415 29.1761 8.46027 29.4304 8.68884 29.7129C8.91774 29.9959 8.9777 30.2735 8.92008 30.4972Z" fill="#AF1212" stroke="#610404"/>
<path d="M5.00373 26.531C4.94612 26.7546 4.76026 26.9656 4.42502 27.0954C4.09026 27.2251 3.64082 27.2554 3.16331 27.1258C2.6858 26.9962 2.30969 26.7419 2.08112 26.4594C1.85222 26.1764 1.79226 25.8987 1.84987 25.6751C1.90749 25.4515 2.09334 25.2405 2.42859 25.1106C2.76334 24.981 3.21279 24.9507 3.69029 25.0803C4.1678 25.2098 4.54392 25.4642 4.77249 25.7467C5.00138 26.0296 5.06135 26.3073 5.00373 26.531Z" fill="#AF1212" stroke="#610404"/>
<path d="M8.92008 27.5225C8.86247 27.7461 8.67662 27.9571 8.34137 28.087C8.00661 28.2166 7.55717 28.2469 7.07966 28.1174C6.60216 27.9878 6.22604 27.7335 5.99747 27.4509C5.76857 27.168 5.70861 26.8903 5.76622 26.6667C5.82384 26.443 6.00969 26.2321 6.34494 26.1022C6.6797 25.9725 7.12914 25.9422 7.60665 26.0718C8.08415 26.2014 8.46027 26.4557 8.68884 26.7382C8.91774 27.0212 8.9777 27.2989 8.92008 27.5225Z" fill="#AF1212" stroke="#610404"/>
<path d="M7.94099 25.5394C7.88337 25.763 7.69752 25.974 7.36227 26.1039C7.02752 26.2335 6.57807 26.2638 6.10057 26.1342C5.62306 26.0047 5.24694 25.7503 5.01837 25.4678C4.78948 25.1849 4.72951 24.9072 4.78713 24.6836C4.84474 24.4599 5.0306 24.2489 5.36584 24.1191C5.7006 23.9894 6.15004 23.9591 6.62755 24.0887C7.10506 24.2183 7.48118 24.4726 7.70974 24.7551C7.93864 25.0381 7.9986 25.3158 7.94099 25.5394Z" fill="#AF1212" stroke="#610404"/>
<path d="M12.8364 30.4972C12.7788 30.7208 12.593 30.9318 12.2577 31.0616C11.923 31.1913 11.4735 31.2216 10.996 31.092C10.5185 30.9624 10.1424 30.7081 9.91382 30.4256C9.68492 30.1427 9.62496 29.865 9.68257 29.6413C9.74019 29.4177 9.92604 29.2067 10.2613 29.0769C10.596 28.9472 11.0455 28.9169 11.523 29.0465C12.0005 29.1761 12.3766 29.4304 12.6052 29.7129C12.8341 29.9959 12.8941 30.2735 12.8364 30.4972Z" fill="#AF1212" stroke="#610404"/>
<path d="M11.8573 28.5141C11.7997 28.7377 11.6139 28.9487 11.2786 29.0785C10.9439 29.2082 10.4944 29.2385 10.0169 29.1089C9.53941 28.9793 9.16329 28.725 8.93473 28.4425C8.70583 28.1595 8.64586 27.8819 8.70348 27.6582C8.76109 27.4346 8.94695 27.2236 9.28219 27.0938C9.61695 26.9641 10.0664 26.9338 10.5439 27.0634C11.0214 27.193 11.3975 27.4473 11.6261 27.7298C11.855 28.0127 11.915 28.2904 11.8573 28.5141Z" fill="#AF1212" stroke="#610404"/>
<path d="M11.8573 26.531C11.7997 26.7546 11.6139 26.9656 11.2786 27.0954C10.9439 27.2251 10.4944 27.2554 10.0169 27.1258C9.53941 26.9962 9.16329 26.7419 8.93473 26.4594C8.70583 26.1764 8.64586 25.8987 8.70348 25.6751C8.76109 25.4515 8.94695 25.2405 9.28219 25.1106C9.61695 24.981 10.0664 24.9507 10.5439 25.0803C11.0214 25.2098 11.3975 25.4642 11.6261 25.7467C11.855 26.0296 11.915 26.3073 11.8573 26.531Z" fill="#AF1212" stroke="#610404"/>
</svg>
