<svg width="139" height="60" viewBox="0 0 139 60" fill="none" xmlns="http://www.w3.org/2000/svg">
<path d="M5.41807 29.4358C4.38653 29.7019 4.41356 31.1778 5.45376 31.3852L41.4013 38.5529C42.0297 38.6782 42.6175 38.1856 42.6057 37.5435L42.3061 21.1781C42.2943 20.536 41.6891 20.0772 41.0659 20.238L5.41807 29.4358Z" fill="black"/>
<path d="M24.3505 29.8721C24.3505 43.0427 41.7801 53.7196 63.2807 53.7196C84.7813 53.7196 102.211 43.0427 102.211 29.8721C102.211 16.7015 84.7813 6.02463 63.2807 6.02463C41.7801 6.02463 24.3505 16.7015 24.3505 29.8721Z" fill="#FCFF53"/>
<rect width="10.8924" height="38.156" transform="matrix(-1 0 0 1 84.8638 10.5431)" fill="black"/>
<rect width="8.47186" height="41.6703" transform="matrix(-1 0 0 1 82.4432 9.03696)" fill="black"/>
<rect width="10.489" height="32.6334" transform="matrix(-1 0 0 1 90.1083 13.5554)" fill="black"/>
<rect width="4.43764" height="33.1354" transform="matrix(-1 0 0 1 40.0838 13.0534)" fill="black"/>
<rect width="6.05133" height="33.1354" transform="matrix(-1 0 0 1 41.6975 13.0534)" fill="black"/>
<rect width="6.05133" height="27.6129" transform="matrix(-1 0 0 1 39.2769 16.0657)" fill="black"/>
<rect width="6.05133" height="23" transform="matrix(-1 0 0 1 35.6461 18.0739)" fill="black"/>
<rect width="11.6992" height="42.1724" transform="matrix(-1 0 0 1 63.8857 9.03696)" fill="black"/>
<rect width="9.68213" height="42.1724" transform="matrix(-1 0 0 1 65.9028 8.53491)" fill="black"/>
<rect width="10.0856" height="42.1724" transform="matrix(-1 0 0 1 59.8514 8.53491)" fill="black"/>
<path fill-rule="evenodd" clip-rule="evenodd" d="M37 43.5817C30.2385 39.4398 27.1744 34.3801 27.1744 29.8721C27.1744 25.3641 30.2385 20.3044 37 16.1625C43.5798 12.1319 52.8677 9.53899 63.2807 9.53899C73.6937 9.53899 82.9816 12.1319 89.5614 16.1625C96.3229 20.3044 99.387 25.3641 99.387 29.8721C99.387 34.3801 96.3229 39.4398 89.5614 43.5817C82.9816 47.6123 73.6937 50.2052 63.2807 50.2052C52.8677 50.2052 43.5798 47.6123 37 43.5817ZM63.2807 53.7196C41.7801 53.7196 24.3505 43.0427 24.3505 29.8721C24.3505 16.7015 41.7801 6.02463 63.2807 6.02463C84.7813 6.02463 102.211 16.7015 102.211 29.8721C102.211 43.0427 84.7813 53.7196 63.2807 53.7196Z" fill="#FFDB1E"/>
<path fill-rule="evenodd" clip-rule="evenodd" d="M30.9501 44.3323C32.2764 54.53 38.4146 57.8475 51.1369 56.8761C52.1971 56.5921 53.3784 56.2865 54.6567 55.9558C68.1766 52.4578 92.5469 46.1525 99.3294 32.9322C99.3038 32.6584 99.2744 32.3915 99.2414 32.1314L30.9501 44.3323Z" fill="#E1E1E1" fill-opacity="0.8"/>
<path fill-rule="evenodd" clip-rule="evenodd" d="M30.9501 15.6677C32.2764 5.47003 38.4146 2.15252 51.1368 3.1239C52.1971 3.40791 53.3784 3.71354 54.6567 4.04426C68.1766 7.54224 92.5469 13.8475 99.3294 27.0679C99.3038 27.3416 99.2744 27.6085 99.2414 27.8686L30.9501 15.6677Z" fill="#E1E1E1" fill-opacity="0.8"/>
<path d="M118.615 31.1273C118.615 31.9316 118.11 33.3169 116.982 35.1152C115.897 36.8447 114.374 38.7399 112.667 40.5009C110.96 42.2626 109.108 43.8489 107.385 44.9828C105.602 46.156 104.177 46.697 103.268 46.697C101.29 46.697 99.2187 45.3045 97.5582 42.4443C95.9198 39.6222 94.8584 35.6243 94.8584 31.1273C94.8584 26.6302 95.9198 22.6323 97.5582 19.8102C99.2187 16.95 101.29 15.5575 103.268 15.5575C104.211 15.5575 105.654 16.0662 107.424 17.155C109.142 18.2125 110.987 19.7039 112.686 21.3958C114.384 23.0879 115.896 24.941 116.973 26.7013C118.075 28.5021 118.615 30.0345 118.615 31.1273Z" fill="#FCFF53" stroke="#FFDB1E" stroke-width="3"/>
<path d="M112.394 27.1608C112.122 28.2184 111.235 29.0606 109.914 29.5245C108.595 29.9873 106.894 30.0497 105.13 29.5709C103.366 29.092 101.917 28.1742 100.994 27.1027C100.068 26.0289 99.7029 24.8468 99.9752 23.7891C100.248 22.7315 101.134 21.8893 102.456 21.4255C103.774 20.9626 105.476 20.9002 107.239 21.379C109.003 21.8579 110.452 22.7757 111.376 23.8472C112.301 24.921 112.666 26.1031 112.394 27.1608Z" fill="#AF1212" stroke="#610404"/>
<path d="M104.332 27.2026C104.273 27.4316 104.083 27.6465 103.743 27.7785C103.403 27.9104 102.946 27.941 102.462 27.8095C101.978 27.678 101.596 27.4198 101.364 27.1326C101.131 26.845 101.069 26.5617 101.128 26.3327C101.187 26.1038 101.377 25.8888 101.718 25.7568C102.058 25.625 102.514 25.5943 102.999 25.7259C103.483 25.8574 103.865 26.1155 104.097 26.4028C104.33 26.6904 104.391 26.9736 104.332 27.2026Z" fill="#AF1212" stroke="#610404"/>
<path d="M107.305 28.2067C107.246 28.4357 107.056 28.6506 106.716 28.7826C106.376 28.9145 105.919 28.9451 105.435 28.8136C104.951 28.6821 104.569 28.4239 104.337 28.1367C104.104 27.8491 104.042 27.5658 104.101 27.3368C104.16 27.1079 104.35 26.8929 104.691 26.7609C105.031 26.6291 105.487 26.5985 105.972 26.73C106.456 26.8615 106.838 27.1196 107.07 27.4069C107.303 27.6945 107.364 27.9777 107.305 28.2067Z" fill="#AF1212" stroke="#610404"/>
<path d="M103.341 24.1903C103.282 24.4193 103.092 24.6342 102.752 24.7662C102.412 24.898 101.955 24.9287 101.471 24.7972C100.987 24.6657 100.605 24.4075 100.373 24.1203C100.14 23.8327 100.078 23.5494 100.137 23.3204C100.196 23.0914 100.386 22.8765 100.727 22.7445C101.067 22.6127 101.523 22.582 102.008 22.7135C102.492 22.845 102.874 23.1032 103.106 23.3904C103.339 23.6781 103.4 23.9613 103.341 24.1903Z" fill="#AF1212" stroke="#610404"/>
<path d="M107.305 25.1944C107.246 25.4234 107.056 25.6383 106.716 25.7703C106.376 25.9021 105.919 25.9328 105.435 25.8013C104.951 25.6698 104.569 25.4116 104.337 25.1244C104.104 24.8368 104.042 24.5535 104.101 24.3245C104.16 24.0955 104.35 23.8806 104.691 23.7486C105.031 23.6168 105.487 23.5861 105.972 23.7176C106.456 23.8492 106.838 24.1073 107.07 24.3945C107.303 24.6822 107.364 24.9654 107.305 25.1944Z" fill="#AF1212" stroke="#610404"/>
<path d="M106.314 23.1862C106.255 23.4152 106.065 23.6301 105.725 23.7621C105.385 23.8939 104.928 23.9246 104.444 23.7931C103.96 23.6616 103.578 23.4034 103.346 23.1162C103.113 22.8286 103.051 22.5453 103.11 22.3163C103.169 22.0873 103.359 21.8724 103.7 21.7404C104.04 21.6086 104.496 21.5779 104.981 21.7094C105.465 21.8409 105.847 22.0991 106.079 22.3863C106.312 22.6739 106.373 22.9572 106.314 23.1862Z" fill="#AF1212" stroke="#610404"/>
<path d="M111.269 28.2067C111.21 28.4357 111.02 28.6506 110.68 28.7826C110.34 28.9145 109.883 28.9451 109.399 28.8136C108.915 28.6821 108.533 28.4239 108.301 28.1367C108.068 27.8491 108.006 27.5658 108.065 27.3368C108.124 27.1079 108.314 26.8929 108.655 26.7609C108.995 26.6291 109.451 26.5985 109.936 26.73C110.42 26.8615 110.802 27.1196 111.034 27.4069C111.267 27.6945 111.328 27.9777 111.269 28.2067Z" fill="#AF1212" stroke="#610404"/>
<path d="M110.278 26.1985C110.219 26.4275 110.029 26.6424 109.689 26.7744C109.349 26.9062 108.892 26.9369 108.408 26.8054C107.924 26.6739 107.542 26.4157 107.31 26.1285C107.077 25.8409 107.015 25.5576 107.074 25.3286C107.133 25.0997 107.323 24.8847 107.664 24.7527C108.004 24.6209 108.46 24.5902 108.945 24.7217C109.429 24.8533 109.811 25.1114 110.043 25.3986C110.276 25.6863 110.337 25.9695 110.278 26.1985Z" fill="#AF1212" stroke="#610404"/>
<path d="M112.303 25.6213C112.244 25.8503 112.054 26.0652 111.713 26.1972C111.373 26.329 110.917 26.3597 110.432 26.2282C109.948 26.0967 109.566 25.8385 109.334 25.5513C109.101 25.2637 109.04 24.9804 109.099 24.7514C109.158 24.5225 109.348 24.3075 109.688 24.1755C110.028 24.0437 110.485 24.013 110.969 24.1445C111.453 24.2761 111.835 24.5342 112.067 24.8214C112.3 25.1091 112.362 25.3923 112.303 25.6213Z" fill="#AF1212" stroke="#610404"/>
<path d="M110.278 24.1903C110.219 24.4193 110.029 24.6342 109.689 24.7662C109.349 24.898 108.892 24.9287 108.408 24.7972C107.924 24.6657 107.542 24.4075 107.31 24.1203C107.077 23.8327 107.015 23.5494 107.074 23.3204C107.133 23.0914 107.323 22.8765 107.664 22.7445C108.004 22.6127 108.46 22.582 108.945 22.7135C109.429 22.845 109.811 23.1032 110.043 23.3904C110.276 23.6781 110.337 23.9613 110.278 24.1903Z" fill="#AF1212" stroke="#610404"/>
<path d="M112.39 34.7111C112.118 33.6535 111.231 32.8113 109.91 32.3475C108.591 31.8846 106.89 31.8222 105.126 32.301C103.362 32.7799 101.913 33.6977 100.99 34.7692C100.064 35.8431 99.6989 37.0251 99.9712 38.0828C100.244 39.1404 101.13 39.9826 102.452 40.4465C103.77 40.9093 105.472 40.9717 107.235 40.4929C108.999 40.0141 110.448 39.0962 111.372 38.0247C112.297 36.9509 112.662 35.7688 112.39 34.7111Z" fill="#AF1212" stroke="#610404"/>
<path d="M104.328 34.6693C104.269 34.4403 104.079 34.2254 103.739 34.0934C103.399 33.9616 102.943 33.9309 102.458 34.0624C101.974 34.1939 101.592 34.4521 101.36 34.7393C101.127 35.0269 101.065 35.3102 101.124 35.5392C101.183 35.7682 101.373 35.9831 101.714 36.1151C102.054 36.2469 102.51 36.2776 102.995 36.1461C103.479 36.0146 103.861 35.7564 104.093 35.4692C104.326 35.1816 104.387 34.8983 104.328 34.6693Z" fill="#AF1212" stroke="#610404"/>
<path d="M107.301 33.6652C107.242 33.4362 107.052 33.2213 106.712 33.0893C106.372 32.9575 105.915 32.9268 105.431 33.0583C104.947 33.1898 104.565 33.448 104.333 33.7352C104.1 34.0228 104.038 34.3061 104.097 34.5351C104.156 34.7641 104.346 34.979 104.687 35.111C105.027 35.2428 105.483 35.2735 105.968 35.142C106.452 35.0105 106.834 34.7523 107.066 34.4651C107.299 34.1774 107.36 33.8942 107.301 33.6652Z" fill="#AF1212" stroke="#610404"/>
<path d="M103.337 37.6816C103.278 37.4526 103.088 37.2377 102.748 37.1057C102.408 36.9739 101.952 36.9432 101.467 37.0747C100.983 37.2062 100.601 37.4644 100.369 37.7516C100.136 38.0392 100.074 38.3225 100.133 38.5515C100.192 38.7805 100.382 38.9954 100.723 39.1274C101.063 39.2592 101.519 39.2899 102.004 39.1584C102.488 39.0269 102.87 38.7687 103.102 38.4815C103.335 38.1939 103.396 37.9106 103.337 37.6816Z" fill="#AF1212" stroke="#610404"/>
<path d="M107.301 36.6775C107.242 36.4485 107.052 36.2336 106.712 36.1016C106.372 35.9698 105.915 35.9391 105.431 36.0706C104.947 36.2021 104.565 36.4603 104.333 36.7475C104.1 37.0351 104.038 37.3184 104.097 37.5474C104.156 37.7764 104.346 37.9913 104.687 38.1233C105.027 38.2551 105.483 38.2858 105.968 38.1543C106.452 38.0228 106.834 37.7646 107.066 37.4774C107.299 37.1898 107.36 36.9065 107.301 36.6775Z" fill="#AF1212" stroke="#610404"/>
<path d="M106.31 38.6857C106.251 38.4567 106.061 38.2418 105.721 38.1098C105.381 37.978 104.925 37.9473 104.44 38.0788C103.956 38.2103 103.574 38.4685 103.342 38.7557C103.109 39.0433 103.047 39.3266 103.106 39.5556C103.165 39.7846 103.355 39.9995 103.696 40.1315C104.036 40.2633 104.492 40.294 104.977 40.1625C105.461 40.031 105.843 39.7728 106.075 39.4856C106.308 39.198 106.369 38.9147 106.31 38.6857Z" fill="#AF1212" stroke="#610404"/>
<path d="M111.265 33.6652C111.206 33.4362 111.016 33.2213 110.676 33.0893C110.336 32.9575 109.879 32.9268 109.395 33.0583C108.911 33.1898 108.529 33.448 108.297 33.7352C108.064 34.0228 108.002 34.3061 108.061 34.5351C108.12 34.7641 108.31 34.979 108.651 35.111C108.991 35.2428 109.447 35.2735 109.932 35.142C110.416 35.0105 110.798 34.7523 111.03 34.4651C111.263 34.1774 111.324 33.8942 111.265 33.6652Z" fill="#AF1212" stroke="#610404"/>
<path d="M110.274 35.6734C110.215 35.4444 110.025 35.2295 109.685 35.0975C109.345 34.9657 108.888 34.935 108.404 35.0665C107.92 35.198 107.538 35.4562 107.306 35.7434C107.073 36.031 107.011 36.3143 107.07 36.5433C107.129 36.7723 107.319 36.9872 107.66 37.1192C108 37.251 108.456 37.2817 108.941 37.1502C109.425 37.0187 109.807 36.7605 110.039 36.4733C110.272 36.1857 110.333 35.9024 110.274 35.6734Z" fill="#AF1212" stroke="#610404"/>
<path d="M112.299 36.2506C112.24 36.0216 112.05 35.8067 111.709 35.6747C111.369 35.5429 110.913 35.5122 110.428 35.6437C109.944 35.7752 109.562 36.0334 109.33 36.3206C109.097 36.6082 109.036 36.8915 109.095 37.1205C109.154 37.3495 109.344 37.5644 109.684 37.6964C110.024 37.8282 110.481 37.8589 110.965 37.7274C111.449 37.5959 111.831 37.3377 112.063 37.0505C112.296 36.7629 112.358 36.4796 112.299 36.2506Z" fill="#AF1212" stroke="#610404"/>
<path d="M110.274 37.6816C110.215 37.4526 110.025 37.2377 109.685 37.1057C109.345 36.9739 108.888 36.9432 108.404 37.0747C107.92 37.2062 107.538 37.4644 107.306 37.7516C107.073 38.0392 107.011 38.3225 107.07 38.5515C107.129 38.7805 107.319 38.9954 107.66 39.1274C108 39.2592 108.456 39.2899 108.941 39.1584C109.425 39.0269 109.807 38.7687 110.039 38.4815C110.272 38.1939 110.333 37.9106 110.274 37.6816Z" fill="#AF1212" stroke="#610404"/>
<path d="M138.36 19.1269L131.909 21.5087L125.873 24.2858L113.625 30.1121L110.725 30.3675L129.545 21.0824L138.36 19.1269Z" fill="black"/>
<path d="M138.36 42.9536L131.909 40.5718L125.873 37.7947L113.625 31.9684L110.725 31.713L129.545 40.9981L138.36 42.9536Z" fill="black"/>
</svg>
