<svg width="66" height="50" viewBox="0 0 66 50" fill="none" xmlns="http://www.w3.org/2000/svg">
<path d="M64 25C64 28.6549 61.7171 32.2314 57.4697 34.99C53.2415 37.7361 47.2811 39.5 40.5952 39.5C33.9093 39.5 27.9489 37.7361 23.7207 34.99C19.4734 32.2314 17.1905 28.6549 17.1905 25C17.1905 21.3451 19.4734 17.7686 23.7207 15.01C27.9489 12.2639 33.9093 10.5 40.5952 10.5C47.2811 10.5 53.2415 12.2639 57.4697 15.01C61.7171 17.7686 64 21.3451 64 25Z" fill="black" stroke="black" stroke-width="4"/>
<mask id="path-2-inside-1_11_3" fill="white">
<path fill-rule="evenodd" clip-rule="evenodd" d="M61.5838 13.0192C61.9039 13.4654 61.7744 14.0806 61.334 14.4088C58.1031 16.8161 56.0138 20.0099 55.7131 23.5902C55.3464 27.9578 57.716 32.0137 61.7781 34.9235C62.2181 35.2387 62.3606 35.8398 62.0609 36.2905C56.6505 44.4249 45.5762 50 32.7939 50C14.6823 50 0 38.8071 0 25C0 11.1929 14.6823 0 32.7939 0C45.2113 0 56.0168 5.2613 61.5838 13.0192Z"/>
</mask>
<path fill-rule="evenodd" clip-rule="evenodd" d="M61.5838 13.0192C61.9039 13.4654 61.7744 14.0806 61.334 14.4088C58.1031 16.8161 56.0138 20.0099 55.7131 23.5902C55.3464 27.9578 57.716 32.0137 61.7781 34.9235C62.2181 35.2387 62.3606 35.8398 62.0609 36.2905C56.6505 44.4249 45.5762 50 32.7939 50C14.6823 50 0 38.8071 0 25C0 11.1929 14.6823 0 32.7939 0C45.2113 0 56.0168 5.2613 61.5838 13.0192Z" fill="#E31D1D"/>
<path d="M55.7131 23.5902L50.7307 23.1718L50.7307 23.1718L55.7131 23.5902ZM61.7781 34.9235L58.8665 38.9883L61.7781 34.9235ZM61.334 14.4088L64.3214 18.4182L61.334 14.4088ZM61.5838 13.0192L57.5214 15.9343L61.5838 13.0192ZM58.3466 10.3994C54.2768 13.4318 51.1801 17.8195 50.7307 23.1718L60.6956 24.0086C60.8474 22.2003 61.9294 20.2004 64.3214 18.4182L58.3466 10.3994ZM50.7307 23.1718C50.1752 29.7866 53.8262 35.3778 58.8665 38.9883L64.6898 30.8588C61.6057 28.6496 60.5175 26.129 60.6956 24.0086L50.7307 23.1718ZM57.8976 33.5214C53.5985 39.9851 44.2654 45 32.7939 45V55C46.8871 55 59.7024 48.8648 66.2241 39.0595L57.8976 33.5214ZM32.7939 45C24.7346 45 17.6245 42.5039 12.6364 38.7013C7.65252 34.9019 5 30.0119 5 25H-5C-5 33.7952 -0.311358 41.4052 6.5738 46.654C13.4548 51.8996 22.7416 55 32.7939 55V45ZM5 25C5 19.9881 7.65252 15.0981 12.6364 11.2987C17.6245 7.49607 24.7346 5 32.7939 5V-5C22.7416 -5 13.4548 -1.89963 6.5738 3.346C-0.311358 8.59482 -5 16.2048 -5 25H5ZM32.7939 5C43.9251 5 53.0682 9.72841 57.5214 15.9343L65.6461 10.1042C58.9654 0.794197 46.4975 -5 32.7939 -5V5ZM58.8665 38.9883C57.3588 37.9083 56.5456 35.5542 57.8976 33.5214L66.2241 39.0595C68.1756 36.1254 67.0774 32.5691 64.6898 30.8588L58.8665 38.9883ZM64.3214 18.4182C66.6968 16.6483 67.7325 13.0117 65.6461 10.1042L57.5214 15.9343C56.0754 13.9191 56.8519 11.513 58.3466 10.3994L64.3214 18.4182Z" fill="#A51F1F" mask="url(#path-2-inside-1_11_3)"/>
<path d="M18.8571 19.25C18.8571 21.5972 16.8637 23.5 14.4047 23.5C11.9458 23.5 9.95236 21.5972 9.95236 19.25C9.95236 16.9028 11.9458 15 14.4047 15C16.8637 15 18.8571 16.9028 18.8571 19.25Z" fill="black"/>
<path d="M35.6191 39.5C35.6191 42.2614 33.2739 44.5 30.381 44.5C27.4881 44.5 25.1429 42.2614 25.1429 39.5C25.1429 36.7386 27.4881 34.5 30.381 34.5C33.2739 34.5 35.6191 36.7386 35.6191 39.5Z" fill="black"/>
<path d="M46.0952 12.25C46.0952 15.4256 43.3983 18 40.0714 18C36.7446 18 34.0476 15.4256 34.0476 12.25C34.0476 9.07436 36.7446 6.5 40.0714 6.5C43.3983 6.5 46.0952 9.07436 46.0952 12.25Z" fill="black"/>
<line x1="2" y1="25" x2="55.0977" y2="25" stroke="#A51F1F" stroke-width="4"/>
</svg>
