<svg width="236" height="150" viewBox="0 0 236 150" fill="none" xmlns="http://www.w3.org/2000/svg">
<path d="M204.421 77.5144C204.421 111.853 176.379 139.777 141.68 139.777C106.981 139.777 78.9393 111.853 78.9393 77.5144C78.9393 43.1761 106.981 15.2521 141.68 15.2521C176.379 15.2521 204.421 43.1761 204.421 77.5144Z" fill="#474747" stroke="#343434" stroke-width="15"/>
<path d="M45.822 107.482C44.8145 113.157 34.9384 116.171 23.763 114.214C12.5877 112.257 2.89301 97.6024 3.90047 91.9277C4.90794 86.2529 11.1355 93.0286 22.3108 94.9857C33.4862 96.9428 46.8294 101.808 45.822 107.482Z" fill="black"/>
<path d="M45.1647 58.2758C44.1572 52.6006 34.28 49.5867 23.1034 51.544C11.9269 53.5013 2.23103 68.1567 3.23858 73.8318C4.24612 79.507 10.4744 72.7307 21.6509 70.7734C32.8275 68.8161 46.1723 63.9509 45.1647 58.2758Z" fill="black"/>
<ellipse cx="78.0292" cy="31.0119" rx="78.0292" ry="31.0119" transform="matrix(0.985009 -0.172501 0.174803 0.984603 66.7565 26.9202)" fill="#D9D9D9" fill-opacity="0.8"/>
<path d="M230.579 119.466C227.585 136.329 190.747 143.974 148.299 136.54C105.85 129.106 73.8661 109.409 76.86 92.5454C79.854 75.6817 116.692 68.0372 159.141 75.4711C201.589 82.9049 233.573 102.602 230.579 119.466Z" fill="#D9D9D9" fill-opacity="0.8"/>
<path d="M120.059 77.5144C120.059 103.902 98.5068 125.381 71.8125 125.381C45.1182 125.381 23.5659 103.902 23.5659 77.5144C23.5659 51.1265 45.1182 29.6475 71.8125 29.6475C98.5068 29.6475 120.059 51.1265 120.059 77.5144Z" fill="#474747" stroke="#343434" stroke-width="15"/>
</svg>
