<svg width="88" height="74" viewBox="0 0 88 74" fill="none" xmlns="http://www.w3.org/2000/svg">
<mask id="path-1-inside-1_22_62" fill="white">
<path fill-rule="evenodd" clip-rule="evenodd" d="M16.0444 5.77083C16.1573 5.70087 16.27 5.63105 16.3825 5.56127C17.0619 5.13953 17.831 4.53344 18.6497 3.88834C20.6561 2.30733 22.9598 0.492043 24.9679 0.582286C26.1371 0.634828 27.934 1.7198 28.8446 2.29458C28.9995 2.3924 29.1673 2.52135 29.3441 2.6572C29.7946 3.00338 30.3032 3.3943 30.8058 3.42861C31.7206 3.49106 32.7425 3.01195 33.7011 2.56256C34.0929 2.37885 34.4742 2.20011 34.8332 2.06537C40.0068 0.123605 45.636 0.170216 50.4721 1.70382C51.2406 1.94753 51.9703 2.4187 52.6853 2.88037C53.0934 3.14382 53.4966 3.40418 53.8995 3.61741C54.5654 3.96978 55.2676 4.2141 55.9729 4.45947C56.3657 4.59613 56.7594 4.73312 57.1483 4.88929C58.5169 5.43881 60.0107 5.68813 61.507 5.93787C62.7796 6.15027 64.054 6.36297 65.2548 6.76091C67.6907 7.56815 69.7712 8.92542 71.8838 10.3036C72.1289 10.4635 72.3745 10.6237 72.621 10.7833C72.9031 10.9659 73.2314 11.145 73.5751 11.3325C74.6167 11.9006 75.7994 12.5457 76.2618 13.5986C76.4426 14.0102 76.4998 14.4665 76.5572 14.9238C76.6203 15.4268 76.6836 15.9309 76.9115 16.3779C77.2708 17.0822 77.8549 17.7702 78.4553 18.4772C79.5104 19.7196 80.6155 21.0211 80.6383 22.5746C80.6442 22.9794 80.5936 23.3926 80.543 23.8055C80.4801 24.3195 80.4172 24.833 80.4635 25.3291C80.7267 28.1494 82.3236 30.8077 83.8791 32.8346C84.1041 33.1278 84.384 33.4481 84.684 33.7914C85.7954 35.0632 87.1839 36.6521 87.0867 38.3559C86.8673 42.2032 85.8513 46.3093 84.3027 49.9756C84.1436 50.3523 84.0195 50.7333 83.8957 51.113C83.702 51.7075 83.5093 52.2989 83.1849 52.8661C83.0214 53.1519 82.8323 53.4271 82.6431 53.7026C82.3964 54.0616 82.1495 54.4209 81.959 54.8044C81.8279 55.0683 81.7457 55.3539 81.6637 55.6394C81.559 56.0034 81.4543 56.3673 81.2481 56.6858C81.2163 56.735 81.166 56.8237 81.104 56.933C80.948 57.2078 80.7184 57.6125 80.524 57.8448C80.4754 57.9246 80.4249 58.0081 80.3726 58.0955C78.3062 60.6326 75.7699 62.5001 73.3203 64.3038C73.1911 64.399 73.0621 64.494 72.9334 64.5889C72.1557 65.1624 71.2606 65.963 70.3079 66.8151C67.973 68.9035 65.2922 71.3013 63.1461 71.4242C61.8966 71.4957 60.0907 70.4245 59.1785 69.8524C59.0233 69.755 58.8578 69.6224 58.6835 69.4828C58.2392 69.127 57.7376 68.7253 57.2018 68.7422C56.2266 68.7731 55.0745 69.4532 53.994 70.0911C53.5522 70.3518 53.1225 70.6055 52.7216 70.805C46.9445 73.6788 40.9049 74.266 35.8867 73.0138C35.0892 72.8148 34.3594 72.3439 33.6442 71.8824C33.2361 71.6191 32.8327 71.3589 32.4244 71.154C31.7496 70.8155 31.0233 70.6083 30.294 70.4001C29.8878 70.2842 29.4806 70.1679 29.0808 70.0286C27.6739 69.5384 26.0982 69.4155 24.5198 69.2924C23.1775 69.1878 21.8332 69.0829 20.5891 68.7519C18.0654 68.0802 15.9861 66.7211 13.8747 65.3411C13.6298 65.181 13.3844 65.0206 13.1378 64.861C12.8557 64.6783 12.5236 64.5052 12.1759 64.3239C11.1221 63.7745 9.92576 63.1507 9.54929 61.965C9.40211 61.5015 9.39266 60.9713 9.38319 60.44C9.37277 59.8556 9.36233 59.2699 9.16854 58.7702C8.86312 57.9827 8.31428 57.2403 7.7502 56.4772C6.75894 55.1362 5.72059 53.7315 5.87337 51.9069C5.91317 51.4315 6.01463 50.9397 6.11601 50.4483C6.24222 49.8366 6.36831 49.2255 6.37518 48.6472C6.41426 45.3601 5.00254 42.4157 3.56337 40.209C3.35522 39.8899 3.09121 39.5451 2.80815 39.1755C1.75976 37.8064 0.449962 36.096 0.748638 34.081C1.42305 29.531 2.98233 24.5856 5.06342 20.0969C5.27728 19.6356 5.45403 19.1734 5.63021 18.7126C5.90602 17.9913 6.18041 17.2738 6.59346 16.5696C6.80158 16.2148 7.03604 15.8696 7.27064 15.5241C7.57649 15.0736 7.8826 14.6228 8.13094 14.1501C8.30187 13.8247 8.42262 13.4795 8.54333 13.1343C8.69726 12.6942 8.85111 12.2543 9.10886 11.8562C9.14865 11.7947 9.21284 11.6846 9.29189 11.549C9.47432 11.2361 9.73591 10.7874 9.95948 10.4874C9.96468 10.4786 9.9699 10.4697 9.97514 10.4608C9.98968 10.4439 10.0043 10.427 10.0189 10.4102C10.0624 10.3555 10.104 10.3079 10.1427 10.2698C11.831 8.38115 13.9732 7.05403 16.0444 5.77083Z"/>
</mask>
<path fill-rule="evenodd" clip-rule="evenodd" d="M16.0444 5.77083C16.1573 5.70087 16.27 5.63105 16.3825 5.56127C17.0619 5.13953 17.831 4.53344 18.6497 3.88834C20.6561 2.30733 22.9598 0.492043 24.9679 0.582286C26.1371 0.634828 27.934 1.7198 28.8446 2.29458C28.9995 2.3924 29.1673 2.52135 29.3441 2.6572C29.7946 3.00338 30.3032 3.3943 30.8058 3.42861C31.7206 3.49106 32.7425 3.01195 33.7011 2.56256C34.0929 2.37885 34.4742 2.20011 34.8332 2.06537C40.0068 0.123605 45.636 0.170216 50.4721 1.70382C51.2406 1.94753 51.9703 2.4187 52.6853 2.88037C53.0934 3.14382 53.4966 3.40418 53.8995 3.61741C54.5654 3.96978 55.2676 4.2141 55.9729 4.45947C56.3657 4.59613 56.7594 4.73312 57.1483 4.88929C58.5169 5.43881 60.0107 5.68813 61.507 5.93787C62.7796 6.15027 64.054 6.36297 65.2548 6.76091C67.6907 7.56815 69.7712 8.92542 71.8838 10.3036C72.1289 10.4635 72.3745 10.6237 72.621 10.7833C72.9031 10.9659 73.2314 11.145 73.5751 11.3325C74.6167 11.9006 75.7994 12.5457 76.2618 13.5986C76.4426 14.0102 76.4998 14.4665 76.5572 14.9238C76.6203 15.4268 76.6836 15.9309 76.9115 16.3779C77.2708 17.0822 77.8549 17.7702 78.4553 18.4772C79.5104 19.7196 80.6155 21.0211 80.6383 22.5746C80.6442 22.9794 80.5936 23.3926 80.543 23.8055C80.4801 24.3195 80.4172 24.833 80.4635 25.3291C80.7267 28.1494 82.3236 30.8077 83.8791 32.8346C84.1041 33.1278 84.384 33.4481 84.684 33.7914C85.7954 35.0632 87.1839 36.6521 87.0867 38.3559C86.8673 42.2032 85.8513 46.3093 84.3027 49.9756C84.1436 50.3523 84.0195 50.7333 83.8957 51.113C83.702 51.7075 83.5093 52.2989 83.1849 52.8661C83.0214 53.1519 82.8323 53.4271 82.6431 53.7026C82.3964 54.0616 82.1495 54.4209 81.959 54.8044C81.8279 55.0683 81.7457 55.3539 81.6637 55.6394C81.559 56.0034 81.4543 56.3673 81.2481 56.6858C81.2163 56.735 81.166 56.8237 81.104 56.933C80.948 57.2078 80.7184 57.6125 80.524 57.8448C80.4754 57.9246 80.4249 58.0081 80.3726 58.0955C78.3062 60.6326 75.7699 62.5001 73.3203 64.3038C73.1911 64.399 73.0621 64.494 72.9334 64.5889C72.1557 65.1624 71.2606 65.963 70.3079 66.8151C67.973 68.9035 65.2922 71.3013 63.1461 71.4242C61.8966 71.4957 60.0907 70.4245 59.1785 69.8524C59.0233 69.755 58.8578 69.6224 58.6835 69.4828C58.2392 69.127 57.7376 68.7253 57.2018 68.7422C56.2266 68.7731 55.0745 69.4532 53.994 70.0911C53.5522 70.3518 53.1225 70.6055 52.7216 70.805C46.9445 73.6788 40.9049 74.266 35.8867 73.0138C35.0892 72.8148 34.3594 72.3439 33.6442 71.8824C33.2361 71.6191 32.8327 71.3589 32.4244 71.154C31.7496 70.8155 31.0233 70.6083 30.294 70.4001C29.8878 70.2842 29.4806 70.1679 29.0808 70.0286C27.6739 69.5384 26.0982 69.4155 24.5198 69.2924C23.1775 69.1878 21.8332 69.0829 20.5891 68.7519C18.0654 68.0802 15.9861 66.7211 13.8747 65.3411C13.6298 65.181 13.3844 65.0206 13.1378 64.861C12.8557 64.6783 12.5236 64.5052 12.1759 64.3239C11.1221 63.7745 9.92576 63.1507 9.54929 61.965C9.40211 61.5015 9.39266 60.9713 9.38319 60.44C9.37277 59.8556 9.36233 59.2699 9.16854 58.7702C8.86312 57.9827 8.31428 57.2403 7.7502 56.4772C6.75894 55.1362 5.72059 53.7315 5.87337 51.9069C5.91317 51.4315 6.01463 50.9397 6.11601 50.4483C6.24222 49.8366 6.36831 49.2255 6.37518 48.6472C6.41426 45.3601 5.00254 42.4157 3.56337 40.209C3.35522 39.8899 3.09121 39.5451 2.80815 39.1755C1.75976 37.8064 0.449962 36.096 0.748638 34.081C1.42305 29.531 2.98233 24.5856 5.06342 20.0969C5.27728 19.6356 5.45403 19.1734 5.63021 18.7126C5.90602 17.9913 6.18041 17.2738 6.59346 16.5696C6.80158 16.2148 7.03604 15.8696 7.27064 15.5241C7.57649 15.0736 7.8826 14.6228 8.13094 14.1501C8.30187 13.8247 8.42262 13.4795 8.54333 13.1343C8.69726 12.6942 8.85111 12.2543 9.10886 11.8562C9.14865 11.7947 9.21284 11.6846 9.29189 11.549C9.47432 11.2361 9.73591 10.7874 9.95948 10.4874C9.96468 10.4786 9.9699 10.4697 9.97514 10.4608C9.98968 10.4439 10.0043 10.427 10.0189 10.4102C10.0624 10.3555 10.104 10.3079 10.1427 10.2698C11.831 8.38115 13.9732 7.05403 16.0444 5.77083Z" fill="#E9C15A"/>
<path d="M9.17059 9.8629C8.8115 10.2825 8.86057 10.9138 9.28019 11.2729C9.6998 11.6319 10.3311 11.5829 10.6901 11.1633L9.17059 9.8629ZM9.97514 10.4608L10.7349 11.111L10.7927 11.0434L10.8377 10.9667L9.97514 10.4608ZM10.9369 10.7958C11.2119 10.3169 11.0466 9.70567 10.5677 9.43066C10.0887 9.15565 9.47751 9.32097 9.2025 9.79991L10.9369 10.7958ZM81.2033 58.6588C81.5512 58.2298 81.4855 57.6001 81.0565 57.2522C80.6276 56.9043 79.9978 56.9701 79.6499 57.399L81.2033 58.6588ZM80.3726 58.0955L79.5959 57.4657L79.5511 57.5209L79.5146 57.582L80.3726 58.0955ZM80.2765 58.2571L81.1374 58.7659L81.1376 58.7656L80.2765 58.2571ZM79.3906 57.7908C79.1105 58.2669 79.2694 58.8798 79.7454 59.1598C80.2214 59.4399 80.8343 59.281 81.1144 58.805L79.3906 57.7908ZM10.6901 11.1633L10.7349 11.111L9.21536 9.81059L9.17059 9.8629L10.6901 11.1633ZM10.8377 10.9667C10.8699 10.9119 10.903 10.8549 10.9369 10.7958L9.2025 9.79991C9.17194 9.85313 9.14196 9.90472 9.11259 9.9548L10.8377 10.9667ZM79.6499 57.399L79.5959 57.4657L81.1493 58.7254L81.2033 58.6588L79.6499 57.399ZM79.5146 57.582C79.4822 57.636 79.4492 57.6915 79.4155 57.7486L81.1376 58.7656C81.1692 58.7121 81.2002 58.66 81.2307 58.6091L79.5146 57.582ZM79.4156 57.7484C79.4072 57.7626 79.3989 57.7768 79.3906 57.7908L81.1144 58.805C81.1222 58.7917 81.1299 58.7787 81.1374 58.7659L79.4156 57.7484ZM16.3825 5.56127L15.3277 3.86203L15.3277 3.86203L16.3825 5.56127ZM16.0444 5.77083L14.9911 4.07067L14.9911 4.07067L16.0444 5.77083ZM18.6497 3.88834L19.8875 5.45925L19.8875 5.45925L18.6497 3.88834ZM24.9679 0.582286L24.8782 2.58027L24.8782 2.58027L24.9679 0.582286ZM28.8446 2.29458L27.777 3.98581L27.777 3.98581L28.8446 2.29458ZM29.3441 2.6572L28.1254 4.243L28.1254 4.24301L29.3441 2.6572ZM30.8058 3.42861L30.6696 5.42397L30.6696 5.42397L30.8058 3.42861ZM33.7011 2.56256L34.55 4.37343L34.55 4.37343L33.7011 2.56256ZM34.8332 2.06537L35.5359 3.93783L35.5359 3.93783L34.8332 2.06537ZM50.4721 1.70382L51.0766 -0.202611L50.4721 1.70382ZM52.6853 2.88037L51.6005 4.56058L52.6853 2.88037ZM53.8995 3.61741L52.964 5.38513L53.8995 3.61741ZM55.9729 4.45947L56.6301 2.57053L56.6301 2.57053L55.9729 4.45947ZM57.1483 4.88929L56.4031 6.74525L57.1483 4.88929ZM61.507 5.93787L61.1778 7.91058L61.1778 7.91058L61.507 5.93787ZM65.2548 6.76091L64.6257 8.65937L65.2548 6.76091ZM71.8838 10.3036L70.791 11.9787L71.8838 10.3036ZM73.5751 11.3325L74.5328 9.57668L73.5751 11.3325ZM76.2618 13.5986L78.093 12.7944L78.093 12.7944L76.2618 13.5986ZM76.5572 14.9238L74.5728 15.1728L74.5728 15.1728L76.5572 14.9238ZM76.9115 16.3779L78.6932 15.4692L78.6932 15.4692L76.9115 16.3779ZM78.4553 18.4772L76.9308 19.7717L76.9308 19.7717L78.4553 18.4772ZM80.6383 22.5746L82.6381 22.5454L82.6381 22.5454L80.6383 22.5746ZM80.543 23.8055L82.5282 24.0486L82.5282 24.0486L80.543 23.8055ZM80.4635 25.3291L78.4722 25.5149L78.4722 25.5149L80.4635 25.3291ZM83.8791 32.8346L82.2925 34.0522L83.8791 32.8346ZM84.684 33.7914L86.19 32.4754L86.19 32.4754L84.684 33.7914ZM87.0867 38.3559L85.09 38.242L85.09 38.242L87.0867 38.3559ZM84.3027 49.9756L86.1451 50.7538L86.1451 50.7538L84.3027 49.9756ZM83.8957 51.113L85.7973 51.7326L85.7973 51.7326L83.8957 51.113ZM83.1849 52.8661L84.921 53.8591L84.921 53.8591L83.1849 52.8661ZM82.6431 53.7026L84.2915 54.8351L84.2915 54.8351L82.6431 53.7026ZM81.959 54.8044L83.7501 55.6944L83.7501 55.6944L81.959 54.8044ZM81.6637 55.6394L79.7415 55.0867L79.7415 55.0867L81.6637 55.6394ZM81.104 56.933L79.3645 55.9459L79.3645 55.9459L81.104 56.933ZM80.524 57.8448L78.9901 56.5613L78.8936 56.6767L78.8155 56.8051L80.524 57.8448ZM80.3726 58.0955L81.9233 59.3586L82.0146 59.2466L82.0887 59.1226L80.3726 58.0955ZM73.3203 64.3038L72.1344 62.6933L72.1344 62.6933L73.3203 64.3038ZM72.9334 64.5889L74.1204 66.1985L74.1205 66.1985L72.9334 64.5889ZM70.3079 66.8151L68.9746 65.3244L68.9746 65.3244L70.3079 66.8151ZM63.1461 71.4242L63.0318 69.4274L63.0318 69.4274L63.1461 71.4242ZM59.1785 69.8524L58.1158 71.5466L58.1158 71.5466L59.1785 69.8524ZM58.6835 69.4828L57.4332 71.0439L57.4332 71.0439L58.6835 69.4828ZM57.2018 68.7422L57.1385 66.7432L57.1385 66.7432L57.2018 68.7422ZM53.994 70.0911L52.9773 68.3688L53.994 70.0911ZM52.7216 70.805L53.6124 72.5956L53.6124 72.5956L52.7216 70.805ZM35.8867 73.0138L35.4025 74.9543L35.4025 74.9543L35.8867 73.0138ZM33.6442 71.8824L34.7285 70.2019L34.7285 70.2019L33.6442 71.8824ZM32.4244 71.154L33.3211 69.3663L33.3211 69.3663L32.4244 71.154ZM30.294 70.4001L30.8429 68.4769L30.8429 68.4769L30.294 70.4001ZM29.0808 70.0286L28.4227 71.9173L28.4227 71.9173L29.0808 70.0286ZM24.5198 69.2924L24.3643 71.2864L24.5198 69.2924ZM20.5891 68.7519L20.0748 70.6846L20.0748 70.6846L20.5891 68.7519ZM13.8747 65.3411L12.7805 67.0152L12.7805 67.0152L13.8747 65.3411ZM12.1759 64.3239L13.1005 62.5505L13.1005 62.5504L12.1759 64.3239ZM9.54929 61.965L11.4555 61.3597L9.54929 61.965ZM9.38319 60.44L7.38351 60.4757L7.38351 60.4757L9.38319 60.44ZM9.16854 58.7702L11.0332 58.047L11.0332 58.047L9.16854 58.7702ZM7.7502 56.4772L9.35851 55.2883L9.3585 55.2883L7.7502 56.4772ZM5.87337 51.9069L3.88034 51.74L3.88034 51.74L5.87337 51.9069ZM6.11601 50.4483L8.07475 50.8525L8.07475 50.8525L6.11601 50.4483ZM6.37518 48.6472L4.37532 48.6234L4.37532 48.6234L6.37518 48.6472ZM3.56337 40.209L1.88816 41.3016L1.88816 41.3016L3.56337 40.209ZM2.80815 39.1755L1.22025 40.3915L1.22026 40.3915L2.80815 39.1755ZM0.748638 34.081L2.72702 34.3742L0.748638 34.081ZM5.06342 20.0969L3.24895 19.2556L3.24895 19.2556L5.06342 20.0969ZM5.63021 18.7126L7.4983 19.427L7.4983 19.427L5.63021 18.7126ZM6.59346 16.5696L4.86837 15.5577L4.86837 15.5577L6.59346 16.5696ZM7.27064 15.5241L8.92525 16.6476L7.27064 15.5241ZM8.13094 14.1501L6.36039 13.22L6.36039 13.22L8.13094 14.1501ZM8.54333 13.1343L6.65545 12.4741L6.65545 12.4741L8.54333 13.1343ZM9.29189 11.549L11.0197 12.5563L9.29189 11.549ZM9.95948 10.4874L11.5631 11.6825L11.6281 11.5954L11.6832 11.5017L9.95948 10.4874ZM9.97514 10.4608L8.45898 9.15644L8.34132 9.29321L8.25004 9.44882L9.97514 10.4608ZM10.0189 10.4102L11.5284 11.7222L11.5566 11.6898L11.5833 11.6562L10.0189 10.4102ZM10.1427 10.2698L11.5477 11.6931L11.5921 11.6493L11.6337 11.6027L10.1427 10.2698ZM15.3277 3.86203C15.2161 3.93127 15.1042 4.00063 14.9911 4.07067L17.0977 7.47099C17.2105 7.40112 17.324 7.33083 17.4373 7.26051L15.3277 3.86203ZM17.4119 2.31744C16.5641 2.98545 15.8915 3.51205 15.3277 3.86203L17.4372 7.26051C18.2323 6.76701 19.098 6.08143 19.8875 5.45925L17.4119 2.31744ZM25.0577 -1.4157C23.4601 -1.48749 21.9656 -0.811096 20.7868 -0.110938C19.5753 0.608708 18.3925 1.54472 17.4119 2.31744L19.8875 5.45925C20.9133 4.65095 21.8856 3.88881 22.8296 3.32812C23.8063 2.74794 24.4677 2.56182 24.8782 2.58027L25.0577 -1.4157ZM29.9122 0.603351C29.442 0.306551 28.6936 -0.15385 27.8877 -0.551227C27.1512 -0.91433 26.0884 -1.36938 25.0577 -1.4157L24.8782 2.58027C25.0167 2.5865 25.4369 2.7002 26.1188 3.03642C26.7312 3.33836 27.3366 3.70783 27.777 3.98581L29.9122 0.603351ZM30.5628 1.0714C30.4069 0.951634 30.1609 0.7604 29.9121 0.603348L27.777 3.98581C27.8381 4.02439 27.9277 4.09107 28.1254 4.243L30.5628 1.0714ZM30.9421 1.43326C31.0497 1.44061 31.1156 1.46388 31.1291 1.46891C31.1418 1.47366 31.1243 1.46837 31.0716 1.43723C31.0196 1.40657 30.9522 1.36212 30.8629 1.29761C30.772 1.23202 30.6791 1.16082 30.5628 1.0714L28.1254 4.24301C28.3317 4.40155 28.669 4.66407 29.0393 4.88248C29.4024 5.0967 29.9704 5.37623 30.6696 5.42397L30.9421 1.43326ZM32.8521 0.751697C32.3532 0.985571 31.9571 1.169 31.5875 1.29595C31.2152 1.4238 31.0204 1.43861 30.9421 1.43326L30.6696 5.42397C31.506 5.48107 32.2796 5.28754 32.8866 5.0791C33.4962 4.86976 34.0904 4.58894 34.55 4.37343L32.8521 0.751697ZM34.1304 0.192908C33.6829 0.360867 33.2264 0.576191 32.8521 0.751698L34.55 4.37343C34.9594 4.18151 35.2655 4.03935 35.5359 3.93783L34.1304 0.192908ZM51.0766 -0.202611C45.8438 -1.86203 39.7527 -1.91726 34.1304 0.192908L35.5359 3.93783C40.2608 2.16448 45.4282 2.20246 49.8675 3.61026L51.0766 -0.202611ZM53.7702 1.20016C53.1059 0.771251 52.1473 0.136905 51.0766 -0.202611L49.8675 3.61026C50.3339 3.75815 50.8347 4.06615 51.6005 4.56058L53.7702 1.20016ZM54.8351 1.8497C54.5225 1.68428 54.1934 1.47343 53.7702 1.20016L51.6005 4.56058C51.9933 4.81422 52.4708 5.12408 52.964 5.38513L54.8351 1.8497ZM56.6301 2.57053C55.9017 2.31712 55.3443 2.11919 54.8351 1.8497L52.964 5.38513C53.7864 5.82037 54.6335 6.11107 55.3157 6.34841L56.6301 2.57053ZM57.8936 3.03332C57.4538 2.85674 57.0156 2.70469 56.6301 2.57053L55.3157 6.34841C55.7157 6.48758 56.065 6.60951 56.4031 6.74525L57.8936 3.03332ZM61.8363 3.96516C60.2987 3.70853 59.0254 3.48781 57.8936 3.03332L56.4031 6.74525C58.0083 7.38982 59.7227 7.66773 61.1778 7.91058L61.8363 3.96516ZM65.884 4.86244C64.5108 4.40738 63.0806 4.17284 61.8363 3.96516L61.1778 7.91058C62.4786 8.1277 63.5973 8.31855 64.6257 8.65937L65.884 4.86244ZM72.9766 8.62854C70.8974 7.27217 68.6056 5.76439 65.884 4.86244L64.6257 8.65937C66.7758 9.37192 68.645 10.5787 70.791 11.9787L72.9766 8.62854ZM73.708 9.10446C73.4648 8.94703 73.2222 8.78876 72.9766 8.62854L70.791 11.9787C71.0357 12.1383 71.2841 12.3003 71.5341 12.4622L73.708 9.10446ZM74.5328 9.57668C74.1721 9.37993 73.9145 9.23819 73.708 9.10446L71.5341 12.4622C71.8917 12.6937 72.2908 12.9101 72.6175 13.0883L74.5328 9.57668ZM78.093 12.7944C77.6701 11.8314 76.9647 11.157 76.3381 10.6856C75.7176 10.2188 75.0296 9.84767 74.5328 9.57668L72.6175 13.0883C73.1622 13.3854 73.5863 13.6209 73.9332 13.8819C74.2739 14.1383 74.3911 14.3128 74.4306 14.4028L78.093 12.7944ZM78.5416 14.6748C78.4913 14.2735 78.411 13.5186 78.093 12.7944L74.4306 14.4028C74.4741 14.5018 74.5084 14.6595 74.5728 15.1728L78.5416 14.6748ZM78.6932 15.4692C78.6516 15.3876 78.613 15.2437 78.5416 14.6748L74.5728 15.1728C74.6276 15.6099 74.7156 16.4743 75.1299 17.2865L78.6932 15.4692ZM79.9798 17.1826C79.3375 16.4263 78.9252 15.9241 78.6932 15.4692L75.1299 17.2865C75.6163 18.2403 76.3723 19.114 76.9308 19.7717L79.9798 17.1826ZM82.6381 22.5454C82.6197 21.2879 82.1617 20.2221 81.6421 19.3689C81.1346 18.5358 80.4865 17.7793 79.9798 17.1826L76.9308 19.7717C77.4791 20.4175 77.9112 20.933 78.2258 21.4496C78.5282 21.9461 78.6342 22.3078 78.6385 22.6039L82.6381 22.5454ZM82.5282 24.0486C82.5756 23.6614 82.6463 23.1105 82.6381 22.5454L78.6385 22.6039C78.6421 22.8483 78.6116 23.1238 78.5579 23.5624L82.5282 24.0486ZM82.4549 25.1434C82.4321 24.8998 82.46 24.6054 82.5282 24.0486L78.5579 23.5624C78.5002 24.0335 78.4023 24.7661 78.4722 25.5149L82.4549 25.1434ZM85.4658 31.6171C83.9764 29.6763 82.6645 27.3896 82.4549 25.1433L78.4722 25.5149C78.7889 28.9092 80.6709 31.9391 82.2925 34.0522L85.4658 31.6171ZM86.19 32.4754C85.8779 32.1182 85.6441 31.8494 85.4658 31.6171L82.2925 34.0522C82.5641 34.4062 82.89 34.7779 83.1781 35.1075L86.19 32.4754ZM89.0835 38.4698C89.1652 37.0377 88.6175 35.7977 88.0414 34.8626C87.4653 33.9277 86.7261 33.0888 86.19 32.4754L83.1781 35.1075C83.7534 35.7658 84.264 36.3573 84.6358 36.9608C85.0075 37.5639 85.1055 37.9703 85.09 38.242L89.0835 38.4698ZM86.1451 50.7538C87.7734 46.899 88.8497 42.5688 89.0835 38.4698L85.09 38.242C84.8849 41.8375 83.9293 45.7197 82.4604 49.1973L86.1451 50.7538ZM85.7973 51.7326C85.925 51.3407 86.0243 51.0399 86.1451 50.7538L82.4604 49.1973C82.2629 49.6647 82.1139 50.1259 81.9941 50.4934L85.7973 51.7326ZM84.921 53.8591C85.3631 53.0861 85.6122 52.3007 85.7973 51.7326L81.9941 50.4934C81.7918 51.1143 81.6555 51.5117 81.4488 51.8732L84.921 53.8591ZM84.2915 54.8351C84.4724 54.5719 84.7096 54.2287 84.921 53.8591L81.4488 51.8732C81.3333 52.0752 81.1923 52.2824 80.9947 52.57L84.2915 54.8351ZM83.7501 55.6944C83.8671 55.4589 84.0303 55.2154 84.2915 54.8351L80.9947 52.57C80.7626 52.9078 80.432 53.383 80.168 53.9144L83.7501 55.6944ZM83.5858 56.192C83.6767 55.8757 83.7134 55.7681 83.7501 55.6944L80.168 53.9144C79.9423 54.3685 79.8147 54.8321 79.7415 55.0867L83.5858 56.192ZM82.927 57.7727C83.3214 57.1636 83.4955 56.5061 83.5858 56.192L79.7415 55.0867C79.6857 55.2809 79.6529 55.3918 79.6175 55.4876C79.5855 55.5743 79.5681 55.6008 79.5693 55.5989L82.927 57.7727ZM82.8434 57.9201C82.8757 57.8631 82.899 57.822 82.918 57.7893C82.9271 57.7736 82.9328 57.764 82.9358 57.759C82.9395 57.7527 82.9359 57.759 82.927 57.7727L79.5693 55.5989C79.4971 55.7104 79.4096 55.8665 79.3645 55.9459L82.8434 57.9201ZM82.0579 59.1282C82.3954 58.7249 82.7229 58.1324 82.8434 57.92L79.3645 55.9459C79.2843 56.0871 79.2047 56.2271 79.1247 56.3572C79.0856 56.4207 79.0521 56.4726 79.0246 56.5128C78.9952 56.5558 78.9839 56.5687 78.9901 56.5613L82.0579 59.1282ZM82.0887 59.1226C82.138 59.0403 82.1859 58.9611 82.2326 58.8844L78.8155 56.8051C78.765 56.8881 78.7119 56.9759 78.6565 57.0685L82.0887 59.1226ZM74.5062 65.9144C76.9279 64.1312 79.6718 62.1229 81.9233 59.3586L78.8219 56.8325C76.9406 59.1423 74.612 60.869 72.1344 62.6933L74.5062 65.9144ZM74.1205 66.1985C74.2484 66.1041 74.3768 66.0096 74.5062 65.9143L72.1344 62.6933C72.0053 62.7884 71.8757 62.8839 71.7463 62.9793L74.1205 66.1985ZM71.6413 68.3058C72.6179 67.4323 73.4353 66.7038 74.1204 66.1985L71.7463 62.9793C70.8762 63.621 69.9034 64.4937 68.9746 65.3244L71.6413 68.3058ZM63.2604 73.4209C64.9348 73.325 66.5379 72.3959 67.8161 71.486C69.1539 70.5336 70.4929 69.3329 71.6413 68.3058L68.9746 65.3244C67.788 66.3857 66.6192 67.428 65.4963 68.2274C64.3139 69.0692 63.5035 69.4004 63.0318 69.4274L63.2604 73.4209ZM58.1158 71.5466C58.5908 71.8446 59.3595 72.3119 60.2033 72.6982C60.9776 73.0526 62.1198 73.4862 63.2604 73.4209L63.0318 69.4274C62.9229 69.4337 62.5374 69.3675 61.8683 69.0611C61.2688 68.7867 60.6785 68.4323 60.2413 68.1581L58.1158 71.5466ZM57.4332 71.0439C57.5816 71.1628 57.8431 71.3756 58.1158 71.5466L60.2413 68.1581C60.2035 68.1344 60.1339 68.0821 59.9337 67.9218L57.4332 71.0439ZM57.265 70.7412C57.1362 70.7453 57.0416 70.7228 56.9946 70.7079C56.9513 70.6943 56.944 70.6858 56.9787 70.7058C57.0132 70.7257 57.0671 70.7607 57.1484 70.821C57.2316 70.8827 57.3175 70.9512 57.4332 71.0439L59.9337 67.9218C59.7351 67.7627 59.379 67.4723 58.9752 67.2397C58.5655 67.0037 57.9276 66.7183 57.1385 66.7432L57.265 70.7412ZM55.0107 71.8134C55.5691 71.4837 56.0411 71.2071 56.4812 71.0023C56.9381 70.7897 57.1789 70.744 57.2651 70.7412L57.1385 66.7432C56.2495 66.7714 55.4266 67.0812 54.7936 67.3758C54.1438 67.6781 53.4994 68.0605 52.9773 68.3688L55.0107 71.8134ZM53.6124 72.5956C54.0899 72.3581 54.5846 72.0649 55.0107 71.8134L52.9773 68.3688C52.5199 68.6388 52.155 68.853 51.8308 69.0143L53.6124 72.5956ZM35.4025 74.9543C40.9177 76.3305 47.4433 75.6645 53.6124 72.5956L51.8308 69.0143C46.4458 71.6931 40.8921 72.2015 36.3709 71.0733L35.4025 74.9543ZM32.5598 73.563C33.215 73.9857 34.2258 74.6607 35.4025 74.9543L36.3709 71.0733C35.9527 70.969 35.5037 70.7021 34.7285 70.2019L32.5598 73.563ZM31.5276 72.9417C31.8219 73.0893 32.1329 73.2875 32.5599 73.563L34.7285 70.2019C34.3393 69.9507 33.8435 69.6284 33.3211 69.3663L31.5276 72.9417ZM29.7451 72.3233C30.5055 72.5403 31.0485 72.7014 31.5276 72.9417L33.3211 69.3663C32.4507 68.9297 31.5412 68.6762 30.8429 68.4769L29.7451 72.3233ZM28.4227 71.9173C28.8856 72.0786 29.348 72.21 29.7451 72.3233L30.8429 68.4769C30.4275 68.3583 30.0756 68.2573 29.7389 68.14L28.4227 71.9173ZM24.3643 71.2864C25.9992 71.4139 27.3046 71.5277 28.4227 71.9173L29.7389 68.14C28.0431 67.5491 26.1972 67.4172 24.6753 67.2985L24.3643 71.2864ZM20.0748 70.6846C21.5269 71.0711 23.0593 71.1846 24.3643 71.2864L24.6753 67.2985C23.2957 67.1909 22.1395 67.0948 21.1035 66.8191L20.0748 70.6846ZM12.7805 67.0152C14.853 68.3698 17.1919 69.9174 20.0748 70.6846L21.1035 66.8191C18.939 66.2431 17.1193 65.0725 14.969 63.667L12.7805 67.0152ZM12.0509 66.5398C12.2932 66.6967 12.535 66.8547 12.7805 67.0152L14.969 63.667C14.7246 63.5073 14.4756 63.3445 14.2247 63.1821L12.0509 66.5398ZM11.2512 66.0973C11.6205 66.2898 11.8631 66.4183 12.0509 66.5398L14.2247 63.1821C13.8483 62.9384 13.4266 62.7205 13.1005 62.5505L11.2512 66.0973ZM7.64307 62.5703C7.99399 63.6754 8.70747 64.4365 9.37835 64.9599C10.0249 65.4643 10.7549 65.8385 11.2512 66.0973L13.1005 62.5504C12.5431 62.2598 12.148 62.0474 11.8389 61.8062C11.554 61.5839 11.4811 61.4402 11.4555 61.3597L7.64307 62.5703ZM7.38351 60.4757C7.39172 60.9366 7.39103 61.7765 7.64307 62.5703L11.4555 61.3597C11.4132 61.2265 11.3936 61.006 11.3829 60.4044L7.38351 60.4757ZM7.30386 59.4934C7.34473 59.5988 7.37152 59.8034 7.38351 60.4757L11.3829 60.4044C11.374 59.9078 11.3799 58.941 11.0332 58.047L7.30386 59.4934ZM6.14189 57.666C6.7455 58.4826 7.11387 59.0035 7.30386 59.4934L11.0332 58.047C10.6124 56.9619 9.88307 55.9979 9.35851 55.2883L6.14189 57.666ZM3.88034 51.74C3.65503 54.4309 5.23169 56.4347 6.1419 57.666L9.3585 55.2883C8.28619 53.8377 7.78616 53.032 7.86639 52.0738L3.88034 51.74ZM4.15727 50.0442C4.06089 50.5113 3.93196 51.1235 3.88034 51.74L7.86639 52.0738C7.89439 51.7394 7.96837 51.3681 8.07475 50.8525L4.15727 50.0442ZM4.37532 48.6234C4.37115 48.974 4.29231 49.3897 4.15727 50.0442L8.07475 50.8525C8.19212 50.2836 8.36546 49.477 8.37504 48.671L4.37532 48.6234ZM1.88816 41.3016C3.23402 43.3652 4.40759 45.9097 4.37532 48.6234L8.37504 48.671C8.42094 44.8106 6.77105 41.4662 5.23857 39.1165L1.88816 41.3016ZM1.22026 40.3915C1.51623 40.778 1.72967 41.0586 1.88816 41.3016L5.23858 39.1165C4.98077 38.7212 4.66619 38.3123 4.39604 37.9595L1.22026 40.3915ZM-1.22975 33.7877C-1.45759 35.3249 -1.05473 36.6761 -0.519092 37.7579C0.00236904 38.8111 0.714827 39.7315 1.22025 40.3915L4.39604 37.9595C3.85307 37.2505 3.38644 36.6311 3.06558 35.9831C2.75889 35.3636 2.6562 34.8521 2.72702 34.3742L-1.22975 33.7877ZM3.24895 19.2556C1.09927 23.8923 -0.523329 29.0218 -1.22975 33.7877L2.72702 34.3742C3.36943 30.0401 4.86538 25.2789 6.87789 20.9381L3.24895 19.2556ZM3.76213 17.9983C3.58235 18.4685 3.42918 18.8669 3.24895 19.2556L6.87789 20.9381C7.12537 20.4044 7.32572 19.8783 7.4983 19.427L3.76213 17.9983ZM4.86837 15.5577C4.35879 16.4264 4.03053 17.2964 3.76213 17.9983L7.4983 19.427C7.78152 18.6863 8.00203 18.1212 8.31856 17.5816L4.86837 15.5577ZM5.61604 14.4005C5.38805 14.7363 5.11558 15.1362 4.86837 15.5577L8.31856 17.5816C8.48758 17.2934 8.68403 17.0028 8.92525 16.6476L5.61604 14.4005ZM6.36039 13.22C6.17358 13.5756 5.9335 13.933 5.61604 14.4005L8.92525 16.6476C9.21948 16.2142 9.59162 15.6701 9.90148 15.0803L6.36039 13.22ZM6.65545 12.4741C6.52669 12.8423 6.45135 13.0468 6.36039 13.22L9.90148 15.0803C10.1524 14.6026 10.3186 14.1167 10.4312 13.7946L6.65545 12.4741ZM7.43 10.7692C7.02106 11.4009 6.79673 12.0701 6.65545 12.4741L10.4312 13.7946C10.5978 13.3183 10.6812 13.1077 10.7877 12.9431L7.43 10.7692ZM7.56408 10.5417C7.52346 10.6114 7.49154 10.6661 7.46499 10.7109C7.43562 10.7605 7.42678 10.7742 7.43 10.7692L10.7877 12.9431C10.8598 12.8317 10.9545 12.6681 11.0197 12.5563L7.56408 10.5417ZM8.35584 9.29228C8.0504 9.70213 7.72782 10.2609 7.56408 10.5417L11.0197 12.5563C11.2208 12.2113 11.4214 11.8727 11.5631 11.6825L8.35584 9.29228ZM8.25004 9.44882C8.24527 9.45695 8.24052 9.46504 8.23579 9.47307L11.6832 11.5017C11.6888 11.4921 11.6945 11.4825 11.7002 11.4727L8.25004 9.44882ZM8.50933 9.09821C8.49252 9.11755 8.47574 9.13696 8.45898 9.15644L11.4913 11.7651C11.5036 11.7508 11.516 11.7365 11.5284 11.7222L8.50933 9.09821ZM8.73765 8.84641C8.62368 8.95891 8.52794 9.0719 8.45447 9.16414L11.5833 11.6562C11.5884 11.6498 11.5887 11.6498 11.5844 11.6547C11.5804 11.6592 11.568 11.673 11.5477 11.6931L8.73765 8.84641ZM14.9911 4.07067C12.9601 5.32894 10.5638 6.79789 8.65162 8.9368L11.6337 11.6027C13.0983 9.96441 14.9862 8.77912 17.0977 7.47099L14.9911 4.07067Z" fill="#B79642" mask="url(#path-1-inside-1_22_62)"/>
</svg>
