<svg width="80" height="50" viewBox="0 0 80 50" fill="none" xmlns="http://www.w3.org/2000/svg">
<path d="M71.1189 24C71.1189 34.1321 63.0272 42.25 53.1631 42.25C43.2989 42.25 35.2073 34.1321 35.2073 24C35.2073 13.8679 43.2989 5.75 53.1631 5.75C63.0272 5.75 71.1189 13.8679 71.1189 24Z" fill="#474747" stroke="#343434" stroke-width="8.5"/>
<ellipse cx="22.5204" cy="10.8404" rx="22.5204" ry="10.8404" transform="matrix(0.984412 -0.175878 0.171445 0.985194 30.9573 8.42171)" fill="#D9D9D9" fill-opacity="0.8"/>
<ellipse cx="22.5204" cy="10.8404" rx="22.5204" ry="10.8404" transform="matrix(0.984412 0.175878 -0.171445 0.985194 35.6613 19)" fill="#D9D9D9" fill-opacity="0.8"/>
<path d="M20.1323 36.1573C19.2206 39.6047 14.3444 41.2762 9.24084 39.8906C4.13731 38.505 0.739122 34.587 1.65078 31.1396C2.56244 27.6921 7.43871 26.0207 12.5422 27.4063C17.6458 28.7919 21.044 32.7099 20.1323 36.1573Z" fill="black"/>
<path d="M20.1323 12.8433C19.2206 9.39591 14.3444 7.72447 9.24084 9.11007C4.13731 10.4957 0.739122 14.4136 1.65078 17.8611C2.56244 21.3085 7.43871 22.9799 12.5422 21.5943C17.6458 20.2087 21.044 16.2908 20.1323 12.8433Z" fill="black"/>
<path d="M52.3673 25C52.3673 36.5128 43.171 45.75 31.9442 45.75C20.7174 45.75 11.5211 36.5128 11.5211 25C11.5211 13.4872 20.7174 4.25 31.9442 4.25C43.171 4.25 52.3673 13.4872 52.3673 25Z" fill="#474747" stroke="#343434" stroke-width="8.5"/>
</svg>
