<svg width="75" height="105" viewBox="0 0 75 105" fill="none" xmlns="http://www.w3.org/2000/svg">
<path fill-rule="evenodd" clip-rule="evenodd" d="M23.4932 37.9312C24.7602 37.0509 23.438 33.3503 20.54 29.6658C20.54 29.6658 20.54 29.6658 20.54 29.6658L20.54 29.6658L10.0454 16.3231L10.0436 16.3243C9.97519 16.235 9.90582 16.1456 9.83553 16.0562C6.93753 12.3717 3.56113 10.0985 2.29413 10.9788C1.02713 11.8591 2.34931 15.5596 5.24731 19.2441C5.3176 19.3335 5.38818 19.4221 5.459 19.5097L5.45719 19.511L15.934 32.8312C15.9399 32.8387 15.9458 32.8462 15.9518 32.8538C18.8498 36.5383 22.2262 38.8115 23.4932 37.9312Z" fill="#131313"/>
<path fill-rule="evenodd" clip-rule="evenodd" d="M53.8083 28.4333L64.8153 15.4604L64.817 15.4617C64.8889 15.3748 64.9617 15.2879 65.0354 15.201C68.0749 11.6186 71.5376 9.46302 72.7695 10.3863C74.0013 11.3096 72.536 14.9622 69.4965 18.5446C69.4227 18.6314 69.3488 18.7175 69.2746 18.8027L69.2763 18.804L58.2953 31.7462C58.2866 31.7564 58.278 31.7667 58.2693 31.7769C55.2298 35.3593 51.7671 37.5148 50.5353 36.5915C49.3034 35.6682 50.7688 32.0157 53.8083 28.4333C53.8083 28.4333 53.8083 28.4333 53.8083 28.4333L53.8083 28.4333Z" fill="#131313"/>
<path fill-rule="evenodd" clip-rule="evenodd" d="M27.4886 25.0203L19.7519 10.1058L19.7539 10.1049C19.7012 10.0065 19.649 9.90737 19.5971 9.80746C17.4607 5.68892 16.8769 1.82408 18.2931 1.17509C19.7094 0.526109 22.5894 3.33874 24.7259 7.45728C24.7777 7.55719 24.8286 7.65695 24.8786 7.75652L24.8806 7.7556L32.6067 22.6496C32.6102 22.6565 32.6138 22.6633 32.6173 22.6702C34.7538 26.7887 35.3376 30.6535 33.9213 31.3025C32.5051 31.9515 29.6251 29.1389 27.4886 25.0203Z" fill="#131313"/>
<path fill-rule="evenodd" clip-rule="evenodd" d="M43.2998 24.1633L48.3588 8.26643L48.361 8.26703C48.3931 8.16116 48.4262 8.05495 48.4601 7.94845C49.8571 3.55865 52.2133 0.344021 53.7228 0.768387C55.2324 1.19275 55.3236 5.09541 53.9266 9.48522C53.8927 9.59171 53.8582 9.69752 53.8232 9.80259L53.8254 9.80319L48.7713 25.6846C48.7697 25.6898 48.768 25.6949 48.7664 25.7001C47.3694 30.0899 45.0132 33.3045 43.5036 32.8801C41.9941 32.4558 41.9029 28.5531 43.2998 24.1633Z" fill="#131313"/>
<path fill-rule="evenodd" clip-rule="evenodd" d="M43.6762 96.8156L40.7856 80.4467L40.7878 80.4464C40.7672 80.338 40.7472 80.229 40.7278 80.1193C39.9296 75.5992 40.5426 71.7383 42.097 71.4959C43.6513 71.2534 45.5584 74.7211 46.3566 79.2413C46.376 79.3509 46.3945 79.4602 46.4122 79.569L46.4144 79.5687L49.3011 95.9156C49.3024 95.9229 49.3037 95.9302 49.305 95.9375C50.1032 100.458 49.4902 104.318 47.9358 104.561C46.3815 104.803 44.4744 101.336 43.6762 96.8156Z" fill="#131313"/>
<path fill-rule="evenodd" clip-rule="evenodd" d="M23.2397 95.2202L28.2987 79.3233L28.3009 79.3239C28.333 79.218 28.366 79.1118 28.3999 79.0053C29.7969 74.6155 32.1531 71.4009 33.6627 71.8253C35.1722 72.2496 35.2635 76.1523 33.8665 80.5421C33.8326 80.6486 33.7981 80.7544 33.7631 80.8594L33.7653 80.86L28.712 96.7389C28.7101 96.7449 28.7082 96.7509 28.7063 96.7569C27.3093 101.147 24.9531 104.361 23.4435 103.937C21.934 103.513 21.8427 99.61 23.2397 95.2202C23.2397 95.2202 23.2397 95.2202 23.2397 95.2202Z" fill="#131313"/>
<path fill-rule="evenodd" clip-rule="evenodd" d="M61.5005 91.7673L53.0957 77.1756L53.0977 77.1746C53.0406 77.0784 52.9839 76.9815 52.9276 76.8837C50.6067 72.8543 49.8484 69.0163 51.234 68.3113C52.6196 67.6063 55.6244 70.3012 57.9453 74.3306C58.0016 74.4284 58.057 74.526 58.1114 74.6235L58.1134 74.6225L66.5049 89.1911C66.5093 89.1988 66.5138 89.2065 66.5182 89.2142C68.8391 93.2436 69.5974 97.0816 68.2118 97.7866C66.8262 98.4916 63.8214 95.7967 61.5005 91.7673Z" fill="#131313"/>
<path fill-rule="evenodd" clip-rule="evenodd" d="M7.3101 86.4777L17.3112 72.8043L17.3131 72.8055C17.3782 72.714 17.4443 72.6224 17.5113 72.5308C20.273 68.755 23.5644 66.3742 24.8628 67.2131C26.1612 68.052 24.9749 71.793 22.2132 75.5688C22.1462 75.6604 22.0789 75.7512 22.0113 75.8411L22.0131 75.8423L12.0295 89.4919C12.0237 89.4998 12.0179 89.5078 12.0121 89.5158C9.25033 93.2916 5.95894 95.6724 4.66054 94.8335C3.36213 93.9945 4.54839 90.2536 7.31011 86.4777L7.3101 86.4777Z" fill="#131313"/>
<path d="M6.09436 52.5966C6.09436 60.6017 12.732 67.1933 21.0472 67.1933C29.3624 67.1933 36 60.6017 36 52.5966C36 44.5915 29.3624 38 21.0472 38C12.732 38 6.09436 44.5915 6.09436 52.5966Z" fill="#383838" stroke="#2D2D2D" stroke-width="6"/>
<path d="M15.6748 51.9166C15.6748 64.0867 25.7572 74.0547 38.3217 74.0547C50.8862 74.0547 60.9686 64.0867 60.9686 51.9166C60.9686 39.7465 50.8862 29.7786 38.3217 29.7786C25.7572 29.7786 15.6748 39.7465 15.6748 51.9166Z" fill="#383838" stroke="#2D2D2D" stroke-width="6"/>
</svg>
