<svg width="80" height="50" viewBox="0 0 80 50" fill="none" xmlns="http://www.w3.org/2000/svg">
<path d="M75.75 25C75.75 34.9462 67.3714 43.25 56.7337 43.25C46.0959 43.25 37.7173 34.9462 37.7173 25C37.7173 15.0539 46.0959 6.75 56.7337 6.75C67.3714 6.75 75.75 15.0539 75.75 25Z" fill="#474747" stroke="#343434" stroke-width="8.5"/>
<path d="M21.0937 36.1573C20.1385 39.6047 15.0294 41.2762 9.68209 39.8906C4.33482 38.505 0.774337 34.587 1.72954 31.1396C2.68473 27.6921 7.7939 26.0207 13.1412 27.4063C18.4885 28.7919 22.0489 32.7099 21.0937 36.1573Z" fill="black"/>
<path d="M21.0937 12.8433C20.1385 9.39591 15.0294 7.72447 9.68209 9.11007C4.33482 10.4957 0.774337 14.4136 1.72954 17.8611C2.68473 21.3085 7.7939 22.9799 13.1412 21.5943C18.4885 20.2087 22.0489 16.2908 21.0937 12.8433Z" fill="black"/>
<path d="M55.0713 25C55.0713 36.3269 45.5352 45.75 33.4698 45.75C21.4043 45.75 11.8683 36.3269 11.8683 25C11.8683 13.6731 21.4043 4.25 33.4698 4.25C45.5352 4.25 55.0713 13.6731 55.0713 25Z" fill="#474747" stroke="#343434" stroke-width="8.5"/>
</svg>
