<svg width="256" height="256" viewBox="0 0 256 256" fill="none" xmlns="http://www.w3.org/2000/svg">
<rect width="256" height="256" fill="#1FB159"/>
<path d="M106.9 91.2622C109.848 88.7881 114.369 90.4336 115.038 94.2241L118.797 115.546C119.466 119.336 115.78 122.429 112.163 121.113L91.8183 113.708C88.2014 112.391 87.366 107.653 90.3145 105.179L106.9 91.2622Z" fill="#01993E"/>
<path d="M186.989 209.729C189.348 207.749 192.965 209.066 193.5 212.098L194.853 219.774C195.388 222.806 192.439 225.281 189.546 224.227L182.222 221.562C179.328 220.508 178.66 216.718 181.019 214.739L186.989 209.729Z" fill="#13BB56"/>
<path d="M46.7521 143.029C43.7644 143.774 41.0906 141.005 41.9394 138.045L44.0878 130.553C44.9365 127.593 48.6712 126.662 50.8102 128.877L56.2245 134.483C58.3635 136.698 57.3026 140.398 54.3148 141.143L46.7521 143.029Z" fill="#13BB56"/>
<path d="M222.989 133.729C225.348 131.749 228.965 133.066 229.5 136.098L230.853 143.774C231.388 146.806 228.439 149.281 225.546 148.227L218.222 145.562C215.328 144.508 214.66 140.718 217.019 138.739L222.989 133.729Z" fill="#13BB56"/>
<path d="M43.9894 64.7286C46.3482 62.7493 49.965 64.0658 50.4997 67.0982L51.8532 74.774C52.3879 77.8064 49.4394 80.2805 46.5459 79.2274L39.2217 76.5616C36.3282 75.5084 35.6598 71.7179 38.0186 69.7386L43.9894 64.7286Z" fill="#13BB56"/>
<path d="M146.135 43.5944C146.403 40.5269 149.892 38.9002 152.414 40.6664L158.799 45.137C161.321 46.9031 160.985 50.7375 158.195 52.0388L151.131 55.3328C148.34 56.6341 145.187 54.4264 145.456 51.359L146.135 43.5944Z" fill="#13BB56"/>
<path d="M103.967 160.219C105.733 162.741 104.106 166.23 101.039 166.498L93.274 167.177C90.2065 167.446 87.9988 164.293 89.3002 161.502L92.5941 154.438C93.8955 151.647 97.7298 151.312 99.496 153.834L103.967 160.219Z" fill="#13BB56"/>
<path d="M34.6371 199.136C34.9726 195.302 39.3331 193.269 42.486 195.476L60.2212 207.895C63.3741 210.102 62.9547 214.895 59.4664 216.522L39.8442 225.672C36.3558 227.298 32.4147 224.539 32.7502 220.704L34.6371 199.136Z" fill="#01993E"/>
<path d="M223.027 43.7947C222.031 47.5126 217.383 48.7578 214.662 46.0362L205.476 36.8506C202.755 34.1289 204 29.4816 207.718 28.4854L220.265 25.1233C223.983 24.1271 227.385 27.5291 226.389 31.247L223.027 43.7947Z" fill="#01993E"/>
<path d="M174.954 93.1493C171.802 95.357 167.441 93.3236 167.106 89.4893L165.973 76.5483C165.638 72.714 169.579 69.9543 173.067 71.581L184.841 77.071C188.329 78.6976 188.748 83.4906 185.596 85.6983L174.954 93.1493Z" fill="#01993E"/>
<path d="M116.071 210.672C117.698 207.183 122.491 206.764 124.698 209.917L132.149 220.558C134.357 223.711 132.324 228.071 128.489 228.407L115.548 229.539C111.714 229.874 108.954 225.933 110.581 222.445L116.071 210.672Z" fill="#01993E"/>
<path d="M45.558 15.3631C48.7109 13.1554 53.0714 15.1888 53.4068 19.0231L54.539 31.9641C54.8745 35.7984 50.9333 38.558 47.4449 36.9314L35.6717 31.4414C32.1833 29.8148 31.7639 25.0218 34.9169 22.8141L45.558 15.3631Z" fill="#01993E"/>
<path d="M171.325 149.316C173.533 152.469 171.5 156.829 167.665 157.165L146.097 159.052C142.263 159.387 139.503 155.446 141.13 151.957L150.28 132.335C151.907 128.847 156.699 128.428 158.907 131.581L171.325 149.316Z" fill="#01993E"/>
<path d="M110.608 30.9419C114.399 30.2735 117.491 33.9592 116.175 37.576L108.77 57.921C107.454 61.5379 102.715 62.3733 100.241 59.4248L86.3245 42.8395C83.8504 39.8909 85.496 35.3699 89.2865 34.7015L110.608 30.9419Z" fill="#01993E"/>
</svg>
