<svg width="256" height="256" viewBox="0 0 256 256" fill="none" xmlns="http://www.w3.org/2000/svg">
<rect width="256" height="256" fill="#78512A"/>
<path d="M201 19.4434C202.547 18.5502 204.453 18.5502 206 19.4434L220.486 27.8066C222.033 28.6998 222.986 30.3504 222.986 32.1368V48.8632C222.986 50.6496 222.033 52.3002 220.486 53.1934L206 61.5566C204.453 62.4498 202.547 62.4498 201 61.5566L186.514 53.1934C184.967 52.3002 184.014 50.6496 184.014 48.8632V32.1368C184.014 30.3504 184.967 28.6998 186.514 27.8066L201 19.4434Z" fill="#573514"/>
<path d="M201 190.443C202.547 189.55 204.453 189.55 206 190.443L220.486 198.807C222.033 199.7 222.986 201.35 222.986 203.137V219.863C222.986 221.65 222.033 223.3 220.486 224.193L206 232.557C204.453 233.45 202.547 233.45 201 232.557L186.514 224.193C184.967 223.3 184.014 221.65 184.014 219.863V203.137C184.014 201.35 184.967 199.7 186.514 198.807L201 190.443Z" fill="#573514"/>
<path d="M37 106.443C38.547 105.55 40.453 105.55 42 106.443L56.4856 114.807C58.0326 115.7 58.9856 117.35 58.9856 119.137V135.863C58.9856 137.65 58.0326 139.3 56.4856 140.193L42 148.557C40.453 149.45 38.547 149.45 37 148.557L22.5144 140.193C20.9674 139.3 20.0144 137.65 20.0144 135.863V119.137C20.0144 117.35 20.9674 115.7 22.5144 114.807L37 106.443Z" fill="#573514"/>
<path d="M33.5 39.4434C35.047 38.5502 36.953 38.5502 38.5 39.4434L42.1603 41.5566C43.7073 42.4498 44.6603 44.1004 44.6603 45.8868V50.1132C44.6603 51.8996 43.7073 53.5502 42.1603 54.4434L38.5 56.5566C36.953 57.4498 35.047 57.4498 33.5 56.5566L29.8397 54.4434C28.2927 53.5502 27.3397 51.8996 27.3397 50.1132V45.8868C27.3397 44.1004 28.2927 42.4498 29.8397 41.5566L33.5 39.4434Z" fill="#573514"/>
<path d="M108.5 105.443C110.047 104.55 111.953 104.55 113.5 105.443L117.16 107.557C118.707 108.45 119.66 110.1 119.66 111.887V116.113C119.66 117.9 118.707 119.55 117.16 120.443L113.5 122.557C111.953 123.45 110.047 123.45 108.5 122.557L104.84 120.443C103.293 119.55 102.34 117.9 102.34 116.113V111.887C102.34 110.1 103.293 108.45 104.84 107.557L108.5 105.443Z" fill="#573514"/>
<path d="M143.5 64.4434C145.047 63.5502 146.953 63.5502 148.5 64.4434L152.16 66.5566C153.707 67.4498 154.66 69.1004 154.66 70.8868V75.1132C154.66 76.8996 153.707 78.5502 152.16 79.4434L148.5 81.5566C146.953 82.4498 145.047 82.4498 143.5 81.5566L139.84 79.4434C138.293 78.5502 137.34 76.8996 137.34 75.1132V70.8868C137.34 69.1004 138.293 67.4498 139.84 66.5566L143.5 64.4434Z" fill="#573514"/>
<path d="M212 97.4434C213.547 96.5502 215.453 96.5502 217 97.4434L227.155 103.307C228.702 104.2 229.655 105.85 229.655 107.637V119.363C229.655 121.15 228.702 122.8 227.155 123.693L217 129.557C215.453 130.45 213.547 130.45 212 129.557L201.845 123.693C200.298 122.8 199.345 121.15 199.345 119.363V107.637C199.345 105.85 200.298 104.2 201.845 103.307L212 97.4434Z" fill="#573514"/>
<path d="M126 201.443C127.547 200.55 129.453 200.55 131 201.443L141.155 207.307C142.702 208.2 143.655 209.85 143.655 211.637V223.363C143.655 225.15 142.702 226.8 141.155 227.693L131 233.557C129.453 234.45 127.547 234.45 126 233.557L115.845 227.693C114.298 226.8 113.345 225.15 113.345 223.363V211.637C113.345 209.85 114.298 208.2 115.845 207.307L126 201.443Z" fill="#573514"/>
<path d="M91 24.4434C92.547 23.5502 94.453 23.5502 96 24.4434L106.155 30.3066C107.702 31.1998 108.655 32.8504 108.655 34.6368V46.3632C108.655 48.1496 107.702 49.8002 106.155 50.6934L96 56.5566C94.453 57.4498 92.547 57.4498 91 56.5566L80.8446 50.6934C79.2976 49.8002 78.3446 48.1496 78.3446 46.3632V34.6368C78.3446 32.8504 79.2976 31.1998 80.8446 30.3066L91 24.4434Z" fill="#573514"/>
<path d="M143.5 160.443C145.047 159.55 146.953 159.55 148.5 160.443L152.16 162.557C153.707 163.45 154.66 165.1 154.66 166.887V171.113C154.66 172.9 153.707 174.55 152.16 175.443L148.5 177.557C146.953 178.45 145.047 178.45 143.5 177.557L139.84 175.443C138.293 174.55 137.34 172.9 137.34 171.113V166.887C137.34 165.1 138.293 163.45 139.84 162.557L143.5 160.443Z" fill="#573514"/>
<path d="M59 190.443C60.547 189.55 62.453 189.55 64 190.443L78.4856 198.807C80.0326 199.7 80.9856 201.35 80.9856 203.137V219.863C80.9856 221.65 80.0326 223.3 78.4856 224.193L64 232.557C62.453 233.45 60.547 233.45 59 232.557L44.5144 224.193C42.9674 223.3 42.0144 221.65 42.0144 219.863V203.137C42.0144 201.35 42.9674 199.7 44.5144 198.807L59 190.443Z" fill="#573514"/>
</svg>
